<svg width="2000" height="2000" xmlns="http://www.w3.org/2000/svg" xml:space="preserve" enable-background="new 0 0 1080 1080" version="1.1">

 <g>
  <title>Layer 1</title>
  <path id="svg_2" d="m1421.66922,1549.97809c0.05749,0.19763 0.11499,0.39526 0.20447,1.24951c2.02038,4.69031 4.00885,8.724 5.99731,12.75769c0,0 0.1416,0.00769 0.05335,0.45935c1.58593,4.14008 3.26019,7.82849 4.93444,11.51697c0.30823,0.50555 0.61658,1.01111 0.72608,2.01587c1.21265,2.99878 2.62414,5.49835 4.03564,7.99798c0.06104,0.20038 0.12207,0.40082 0.27454,1.10022c0.20349,0.7959 0.4176,0.92951 0.73364,0.89984c0.06189,0.4585 0.12366,0.91706 0.01831,1.92347c1.88855,4.72808 3.94434,8.90826 6.00013,13.0885c0.0614,0.19671 0.12292,0.39349 0.22302,1.24139c1.62097,3.67865 3.20337,6.70612 4.78576,9.73358c0.05591,0.19654 0.11182,0.39313 0.26331,1.08484c0.2063,0.78839 0.4187,0.93573 0.73254,0.93701c0.06116,0.19641 0.12244,0.39295 0.19934,1.23572c0.94312,2.36524 1.87061,4.08399 2.79822,5.80274c0.04236,0.73925 0.08472,1.47851 -0.31689,2.63501c-3.8562,0.68164 -7.27149,0.91235 -10.67981,1.22021c-3.17847,0.28723 -6.34949,0.65686 -9.52375,0.99023c-1.77667,-0.02319 -3.55328,-0.04638 -5.86932,-0.281c-1.08758,-0.04663 -1.63586,0.11828 -2.18414,0.2832c-4.74866,-0.02209 -9.49725,-0.04419 -14.99066,-0.33423c-1.39075,-0.39489 -2.03668,-0.63244 -2.6828,-0.63293c-36.22486,-0.02295 -72.44965,-0.03626 -108.67444,0.01294c-1.20984,0.00171 -2.4187,0.65503 -3.62799,1.00464c-1.09754,-0.05384 -2.19507,-0.10767 -3.72852,-0.54139c-2.45978,-4.31469 -4.67218,-8.16552 -6.4718,-12.20025c-5.05933,-11.34351 -9.94873,-22.76282 -14.43591,-34.15888c1.13562,-0.01074 1.80188,-0.01855 2.4682,-0.01855c43.32867,-0.00281 86.65741,0.00177 129.98608,-0.01587c5.30457,-0.00214 5.92151,-0.70276 4.19519,-4.75806c-4.10736,-9.64868 -8.25897,-19.27893 -12.45416,-28.88977c-13.11932,-30.05487 -26.30164,-60.08227 -39.39429,-90.1488c-13.95593,-32.04907 -27.8089,-64.14301 -41.75946,-96.1944c-14.01788,-32.20599 -28.12872,-64.37152 -42.14746,-96.57708c-16.27716,-37.39374 -32.49554,-74.81312 -48.74512,-112.21888c-11.93823,-27.4812 -23.8692,-54.96567 -35.83374,-82.43542c-11.76593,-27.01343 -23.57757,-54.00693 -35.3551,-81.01529c-8.05151,-18.46372 -16.06891,-36.94226 -24.12659,-55.40326c-1.36041,-3.11676 -1.60388,-5.62625 1.20936,-8.49573c16.20233,-16.52579 32.13439,-33.31595 48.2445,-49.93274c23.99671,-24.7514 48.03357,-49.46419 72.1134,-74.13481c20.01337,-20.50435 40.11377,-40.92386 60.17383,-61.38263c1.04981,-1.07065 2.07215,-2.16824 3.12543,-3.23537c15.55792,-15.76352 31.11896,-31.52399 47.08185,-47.24546c1.20959,0.03009 2.01654,0.02045 2.82349,0.01081c2.29113,0.73623 4.57153,2.06671 6.8753,2.1086c11.65704,0.21195 23.32678,0.3321 34.97955,0.01978c13.5448,-0.36303 27.07624,-1.2158 40.61457,-1.8337c1.63281,-0.07453 3.27209,-0.01015 4.78308,-0.01015c2.19641,7.9306 -5.48084,8.25806 -8.51673,11.91531c-2.74316,3.30457 -6.74499,5.52832 -9.81652,8.60353c-6.73572,6.74381 -13.23456,13.72412 -19.82843,20.60952c-2.61249,2.72809 -5.17444,5.50629 -7.83857,8.18293c-9.69586,9.74165 -19.61242,19.27128 -29.09631,29.21424c-13.10809,13.74251 -25.71869,27.96071 -38.87451,41.65616c-14.91132,15.52281 -30.24427,30.63965 -45.28687,46.0376c-8.42804,8.6272 -16.49731,17.60699 -24.98828,26.17004c-8.46667,8.53855 -17.40216,16.61274 -25.85242,25.16675c-4.97674,5.03784 -9.23144,10.78397 -14.13818,15.8974c-4.69739,4.89523 -9.99011,9.21802 -14.70422,14.09857c-4.68384,4.84928 -8.77179,10.27677 -13.48536,15.09412c-6.07812,6.21182 -12.33483,12.27814 -18.85912,18.01529c-5.5738,4.90127 -6.16694,7.36307 -2.80268,14.23456c3.5578,7.26675 6.73078,14.72186 10.07526,22.09314c5.28161,11.64093 10.68506,23.22854 15.80529,34.94003c3.12208,7.14117 5.67243,14.53094 8.7334,21.70068c2.85065,6.67725 6.17188,13.15305 9.04609,19.82093c4.96167,11.51068 9.62335,23.15103 14.61895,34.64657c7.00531,16.12067 14.29206,32.11908 21.28339,48.24573c4.69421,10.82794 8.93939,21.85077 13.6507,32.67096c5.30157,12.17566 10.93115,24.20819 16.36261,36.32782c5.35473,11.94812 10.74426,23.88232 15.92559,35.90582c4.87537,11.31378 9.44025,22.76093 14.25135,34.10291c4.09881,9.66278 8.31018,19.27856 12.54986,28.88061c5.65497,12.80774 11.39728,25.57691 17.05286,38.38434c0.3186,0.7215 0.19128,1.63989 0.3291,3.22076c1.60461,3.47724 3.15161,6.20038 4.69855,8.92359c0.40197,1.14783 0.80395,2.29571 1.24255,4.17163c2.5387,6.79541 4.9516,12.90173 7.58307,18.91235c1.2002,2.74134 2.83173,5.29383 4.26758,7.93195c0.05243,0.18524 0.10492,0.37054 0.18976,1.2005c1.61291,3.69708 3.19342,6.74945 4.77398,9.80182c0.3913,1.13635 0.7826,2.2727 1.2273,4.12414c1.29809,3.09656 2.54278,5.47803 3.78753,7.85944c0.05799,0.1922 0.11597,0.38446 0.19581,1.21393c0.68499,1.69977 1.34808,2.76227 2.01116,3.82477c0,0 0.08997,0.00506 0.02588,0.41894c1.2096,2.79096 2.48334,5.16797 3.75702,7.54498c0.72333,1.80964 1.44666,3.61927 2.19513,6.15168c1.01404,2.42492 2.00281,4.12707 2.99164,5.82916c0,0 0.16064,0.03528 0.07929,0.49664c2.19256,5.47821 4.46642,10.49512 6.74035,15.51196c0.05292,0.18824 0.10578,0.37647 0.2475,1.05384c0.18915,0.7926 0.39886,0.95593 0.71789,0.97919c0.05811,0.19177 0.11622,0.38354 0.21235,1.22338c1.96142,4.68354 3.88482,8.71906 5.80822,12.75458c0.05152,0.1792 0.10303,0.3584 0.17444,1.18964c1.61322,3.70746 3.20654,6.76288 4.79987,9.81823c0.05688,0.19214 0.11377,0.38422 0.25458,1.07172c0.18914,0.80127 0.4035,0.95374 0.72692,0.95282c0.0708,0.47669 0.14154,0.95337 0.23932,2.14581c2.01319,4.7472 3.99939,8.77863 5.98566,12.81006c0,0 0.15973,0.03266 0.08038,0.48792c1.86054,4.48083 3.80036,8.50628 5.74011,12.5318c0.05347,0.18805 0.10694,0.37616 0.17511,1.20727c1.27594,2.99811 2.53718,5.35327 3.7984,7.70838c0.05817,0.21685 0.1164,0.43365 0.19196,1.29962c0.62238,1.69153 1.22742,2.73401 1.83246,3.77649z" fill="#E4DDB2"/>
  <path id="svg_3" d="m702.01279,1448.61114c-0.27167,0.3581 -0.54337,0.71619 -1.43738,1.18744c-9.52466,8.97614 -18.44882,17.81745 -27.28845,26.74244c-0.72242,0.72943 -0.8685,2.0296 -1.28241,3.06457c0,0 -0.12683,0.27136 -0.5849,0.28241c-2.10093,1.92682 -3.74381,3.84265 -5.38669,5.75842c0,0 -0.12152,0.26026 -0.57666,0.2793c-4.75667,4.16345 -8.816,8.60358 -13.42191,12.37646c-5.57039,4.56287 -7.11992,10.18598 -7.07071,17.12317c0.22681,31.96991 0.19175,63.94245 0.11361,95.91364c-0.03197,13.07745 1.72546,11.336 -11.31252,11.55682c-2.2244,0.03772 -4.43938,0.63135 -6.65869,0.96826c-27.09039,-0.0216 -54.18077,-0.04309 -82.00485,-0.32861c-14.03965,-0.40002 -27.34543,-0.56006 -40.65164,-0.6626c-7.81236,-0.06018 -8.10412,-0.42541 -8.29703,-8.12646c-0.1307,-5.21723 -0.6534,-10.42475 -1.00078,-15.6366c0.02999,-0.47388 0.05997,-0.94769 0.49815,-1.87024c0.17071,-3.71014 -0.06676,-6.97162 -0.30424,-10.23309c-0.04734,-1.10315 -0.09468,-2.20636 0.11419,-3.95429c0.33931,-2.44091 0.42241,-4.237 0.97793,-6.03674c32.63571,-0.00751 64.79899,-0.00726 96.96226,-0.01862c6.59521,-0.00231 6.62575,-0.03344 6.62709,-6.74328c0.00711,-35.49622 -0.03722,-70.99249 0.09225,-106.48828c0.00898,-2.46008 0.67463,-5.3692 2.09667,-7.27887c2.96419,-3.98084 6.56639,-7.50293 10.03474,-11.08948c21.06961,-21.78741 42.17899,-43.53638 63.26798,-65.30499c20.27743,-20.93085 40.54224,-41.87396 60.81976,-62.80463c20.85727,-21.52911 41.71643,-43.0564 62.58743,-64.5722c22.1471,-22.8313 44.28302,-45.67347 66.47284,-68.46314c17.54679,-18.02112 35.18403,-35.9541 52.74369,-53.96271c4.18112,-4.28796 8.15341,-8.77929 12.3229,-13.07904c23.53528,-24.27059 47.08576,-48.52649 70.67401,-72.7456c3.49134,-3.58472 4.65381,-3.41983 6.73005,1.3222c8.47619,19.35932 16.80151,38.7847 25.00793,58.46668c-1.06433,1.7254 -1.95416,3.1698 -2.84399,4.61426c-0.2168,0.30645 -0.43354,0.61297 -1.24823,1.02703c-1.99341,2.02973 -3.38892,3.95179 -4.78443,5.87384c0,0 -0.04223,0.19135 -0.46814,0.17347c-1.77838,1.59741 -3.13086,3.2127 -4.48327,4.828c-0.24591,0.32642 -0.49189,0.65289 -1.33728,1.10791c-1.15338,0.47894 -1.80378,0.73578 -2.24695,1.19336c-10.01892,10.34393 -20.0376,20.68854 -29.97351,31.11194c-0.80628,0.84576 -1.01697,2.25927 -1.50446,3.40899c0,0 -0.12103,0.26905 -0.58258,0.28559c-1.60272,0.96344 -2.84363,1.8136 -3.87036,2.8717c-20.50287,21.12836 -40.93878,42.32178 -61.47623,63.41651c-20.19506,20.74298 -40.5318,41.34832 -60.6954,62.12164c-3.39905,3.50189 -6.23651,7.54883 -9.33344,11.34393c-0.00003,0 -0.11911,0.26435 -0.5751,0.28528c-7.53055,7.00885 -14.6286,13.97339 -21.6366,21.02747c-0.583,0.58691 -0.55816,1.77765 -0.81576,2.68786c0,0 -0.10596,0.25824 -0.55677,0.27118c-2.10629,1.93567 -3.76174,3.85846 -5.41723,5.78125c0.00003,0 -0.10004,0.2406 -0.54681,0.25867c-1.82233,1.19684 -3.30347,2.2735 -4.55762,3.56976c-17.09207,17.66644 -34.10334,35.41126 -51.23447,53.03961c-18.98914,19.54041 -38.1029,38.95978 -57.08502,58.50696c-1.50577,1.55066 -2.40817,3.6872 -3.59097,5.55145z" fill="#E6DEB4"/>
  <path id="svg_4" d="m615.00575,702.28003c8.02393,-0.03501 16.04785,-0.07003 24.63491,0.27425c4.94607,1.47987 5.52384,4.4987 5.51747,8.591c-0.1144,73.28528 -0.08246,146.57077 -0.07843,219.85621c0.00554,100.60041 0.01402,201.20078 -0.27576,301.99442c-14.54999,14.58759 -28.80299,28.98187 -43.05598,43.37616c-0.56818,-0.31122 -1.13634,-0.6225 -1.70452,-0.93372c0,-190.8847 0,-381.76937 0.42714,-572.62543c2.22174,0.31086 4.0385,0.92073 5.806,0.80139c2.92642,-0.19759 5.82111,-0.86489 8.72917,-1.33428z" fill="#EAE1B5"/>
  <path id="svg_5" d="m597.10094,1280.80267c-0.00722,-100.6004 -0.0157,-201.20077 -0.02124,-301.80118c-0.00403,-73.28544 -0.03597,-146.57093 0.07843,-219.85621c0.00637,-4.0923 -0.5714,-7.11113 -5.05028,-8.54378c6.004,-0.77451 6.83288,0.1183 6.83328,7.26515c0.00378,66.659 0.00243,133.31801 0.00229,199.97701c-0.00017,75.99127 0.00021,151.98251 -0.00136,227.97378c-0.00059,28.69355 -0.00609,57.38709 -0.00929,86.08063c-0.00021,1.96649 -0.00002,3.93304 -0.00002,5.69592c5.91825,2.08631 7.69613,-2.96313 10.26656,-5.49792c6.78496,-6.69098 12.7551,-14.19965 19.38663,-21.05689c9.08419,-9.39331 18.49514,-18.47009 27.73397,-27.71466c3.89371,-3.89624 7.73426,-7.8468 11.54746,-11.82202c4.80859,-5.01288 9.50565,-10.13373 14.35858,-15.10284c5.57334,-5.70667 11.2666,-11.29614 16.90424,-16.94007c5.52063,-5.52673 11.16482,-10.93719 16.52285,-16.61743c6.87931,-7.29297 13.29749,-15.03167 20.34556,-22.1514c5.89648,-5.95636 12.67498,-11.03833 18.58639,-16.98147c6.92123,-6.95838 13.23315,-14.5184 19.98776,-21.64844c4.5423,-4.79474 9.55011,-9.1496 14.07288,-13.96143c7.76535,-8.26168 15.2189,-16.81713 23.01486,-25.04891c2.21683,-2.34073 5.44815,-3.70804 7.72669,-6.00531c7.07211,-7.13028 13.86099,-14.54044 20.85498,-21.74964c5.02957,-5.18439 10.29602,-10.13974 15.30041,-15.3475c4.58957,-4.77603 8.91904,-9.80103 13.46097,-14.62418c2.72943,-2.89837 5.68832,-5.57928 8.46964,-8.43054c4.86364,-4.98581 9.62585,-10.07108 14.51654,-15.02988c2.98925,-3.03094 6.14947,-5.89288 9.21331,-8.85095c2.20862,-2.13235 4.38196,-4.30118 6.57666,-6.44803c2.36206,-2.31064 4.75116,-4.59408 7.09241,-6.9256c5.55298,-5.52984 11.20239,-10.96954 16.58813,-16.65841c4.42054,-4.66928 8.36213,-9.79297 12.79822,-14.44617c5.07562,-5.32397 10.49933,-10.31461 15.69635,-15.52527c1.89649,-1.9014 3.48645,-4.10721 5.37079,-6.02217c7.86511,-7.99303 15.75873,-15.9585 23.69879,-23.87704c9.8042,-9.77765 19.79724,-19.3698 29.4588,-29.28559c7.55603,-7.75485 14.71857,-15.89256 22.08545,-23.83273c1.64655,-1.7747 3.46332,-3.39084 5.12268,-5.15436c9.95606,-10.58093 19.7688,-21.30031 29.89081,-31.71953c3.87439,-3.98819 8.74677,-7.00616 12.62653,-10.99003c9.59961,-9.85732 18.91546,-19.99208 28.29407,-30.0632c7.65918,-8.22468 15.15448,-16.604 22.90875,-24.73708c2.87024,-3.01045 6.33636,-5.44438 9.40668,-8.27573c1.80255,-1.66226 3.30487,-3.64531 5.04211,-5.38425c2.79919,-2.80179 5.59888,-5.61523 8.58081,-8.21437c0.82806,-0.72177 2.28961,-0.93435 3.47803,-0.98734c5.10119,-0.22748 10.2088,-0.42198 15.31421,-0.42497c48.32775,-0.0283 96.65558,0.00532 144.98327,-0.044c4.99085,-0.00509 9.9812,-0.43283 15.74127,-0.8471c2.75843,0.26433 5.93177,-1.42266 5.66962,2.73576c-0.53986,0.18869 -0.85681,0.21378 -1.57379,0.03064c-3.85162,-0.08468 -7.31067,-0.02808 -10.76965,-0.02708c-53.99146,0.01567 -107.98298,-0.00713 -161.97419,0.12261c-2.83148,0.0068 -6.33075,0.47221 -8.36969,2.13427c-7.45458,6.07658 -14.76977,12.41088 -21.48754,19.28341c-8.93787,9.14384 -17.02485,19.11699 -25.91584,28.30982c-13.17114,13.6184 -26.90991,26.68795 -40.07623,40.31091c-19.18915,19.85477 -37.98895,40.08539 -57.14233,59.9752c-10.5893,10.99648 -21.52112,21.66507 -32.37995,32.39908c-4.25244,4.20352 -8.92254,7.99497 -13.05456,12.30744c-5.74378,5.99475 -10.95362,12.50497 -16.75354,18.44134c-21.88172,22.39652 -43.92652,44.63367 -65.87726,66.96286c-15.64087,15.91055 -31.20157,31.89994 -46.86514,47.78797c-2.91178,2.95349 -6.32959,5.4136 -9.19269,8.40844c-10.22681,10.69733 -20.22461,21.61399 -30.47888,32.28446c-13.03571,13.56479 -26.15146,27.05542 -39.4004,40.41165c-7.38055,7.44037 -15.2889,14.35971 -22.61633,21.84946c-7.3193,7.4815 -14.03158,15.55563 -21.32513,23.06381c-18.07767,18.60962 -36.30188,37.07745 -54.53247,55.53784c-11.91651,12.06665 -24.05887,23.91187 -35.88529,36.06531c-7.29571,7.4975 -14.2651,15.31884 -21.22981,23.12964c-3.69157,4.14001 -7.47028,7.66253 -13.62582,6.12829z" fill="#B9A86A"/>
  <path id="svg_6" d="m614.56906,686.1606c-2.47137,0.58882 -5.36606,1.25612 -8.29248,1.45371c-1.7675,0.11934 -3.58426,-0.49053 -5.98457,-1.12961c-0.83994,-1.15008 -1.25662,-1.93776 -1.28092,-2.73736c-0.33832,-11.13645 -0.69443,-22.27323 -0.89653,-33.41266c-0.14461,-7.9713 -0.46948,-8.42454 -8.59431,-8.42667c-41.82703,-0.01102 -83.65407,0.00207 -125.4811,-0.00555c-13.13844,-0.0024 -13.14181,-0.01989 -13.1414,12.94432c0.00746,230.96523 0.01915,461.9305 0.02201,692.89571c0.00091,73.98889 0.0306,147.97785 -0.14512,221.96637c-0.01214,5.1131 1.41491,6.5755 6.46125,6.39905c10.9855,-0.38422 21.99304,-0.20105 32.99058,-0.11871c1.91544,0.0144 3.82606,0.67028 5.73891,1.02984c-0.08309,1.79614 -0.16619,3.59223 -0.54576,5.62055c-0.83732,-1.01813 -1.37816,-2.26844 -1.66555,-2.9328c-13.3214,0 -26.40248,-0.26294 -39.46347,0.13446c-4.96017,0.15094 -6.36847,-1.44886 -6.26409,-6.11914c0.45305,-20.2699 0.94682,-40.5445 0.9615,-60.81769c0.09084,-125.49604 0.06089,-250.99201 0.06199,-376.48804c0.0012,-136.16699 12.03881,-256.33405 11.94507,-392.50098c-0.01671,-24.27394 -12.62903,-64.54718 -12.87006,-88.8217c-0.02743,-2.76209 0.4345,-5.55403 0.90804,-8.29086c0.97185,-5.61676 5.08865,-8.47294 10.5674,-7.57784c2.08614,0.34082 4.19605,0.75898 6.29561,0.76173c36.49881,0.04778 72.99769,0.03578 109.49655,0.03825c7.03804,0.00048 14.07673,0.06456 21.11378,-0.0166c2.97385,-0.0343 3.50141,1.4464 3.46942,4.0762c-0.12565,10.3315 0.03859,20.66646 -0.08189,30.99809c-0.10449,8.95934 1.37218,11.10519 10.74051,10.9225c1.1653,-0.02273 2.33192,0.02235 3.93463,0.15543z" fill="#B9A86A"/>
  <path id="svg_7" d="m1018.42203,1060.87994c0.50122,-1.45666 1.39105,-2.90106 2.83154,-4.61346c2.49249,1.25378 5.29517,2.37219 6.22949,4.36609c4.39417,9.3778 8.34125,18.96862 12.32337,28.53522c4.96185,11.92016 9.63861,23.96124 14.74267,35.81915c4.62775,10.75116 9.81012,21.26288 14.48102,31.99633c5.29431,12.16608 10.20599,24.49811 15.43915,36.69141c6.86456,15.99445 13.86548,31.93054 20.83691,47.87897c5.37518,12.29663 10.78546,24.578 16.19843,36.85803c4.95031,11.23041 10.08166,22.38409 14.84534,33.69293c4.76867,11.32056 8.92297,22.90302 13.80438,34.17243c9.29193,21.4519 19.00378,42.72155 28.36584,64.14361c9.09809,20.81787 18.08606,41.68549 26.91382,62.61921c6.32263,14.99322 12.37305,30.1029 18.4079,45.21539c3.87237,9.69732 3.76233,9.63159 14.3999,9.78332c5.2544,0.07495 10.50171,0.64331 15.75226,0.98834c4.95642,11.38947 9.84582,22.80878 14.90515,34.15229c1.79962,4.03473 4.01202,7.88556 6.06274,12.14654c-2.16918,-1.99511 -5.15142,-3.9552 -6.41552,-6.70507c-4.02332,-8.75232 -7.33515,-17.82911 -11.08332,-26.71241c-1.07788,-2.55481 -2.98059,-4.7669 -4.01489,-7.33368c-1.92572,-4.77887 -5.9057,-3.86908 -9.59643,-3.89007c-3.66504,-0.02088 -7.33094,0.00659 -10.99567,0.06408c-6.21149,0.09748 -8.48932,-1.6477 -10.59912,-7.3031c-4.25196,-11.3977 -8.62372,-22.75286 -13.11426,-34.05871c-4.27765,-10.76965 -8.58789,-21.5332 -13.21124,-32.15698c-6.34131,-14.57123 -13.03406,-28.98902 -19.49072,-43.51056c-3.07258,-6.91034 -5.97107,-13.89856 -8.9065,-20.8692c-4.15491,-9.86652 -8.15875,-19.79834 -12.43432,-29.612c-4.55848,-10.46296 -9.43128,-20.78858 -14.0254,-31.23633c-2.80542,-6.38025 -5.2398,-12.92328 -8.02563,-19.31262c-5.01617,-11.50464 -10.16895,-22.94983 -15.27319,-34.41608c-0.33484,-0.75214 -0.8053,-1.44727 -1.10547,-2.211c-2.55164,-6.49237 -4.85663,-13.09192 -7.66199,-19.47186c-4.76508,-10.83692 -9.96301,-21.4834 -14.74103,-32.31488c-2.98034,-6.75623 -5.33105,-13.7901 -8.30731,-20.54822c-4.71204,-10.69928 -9.80994,-21.22839 -14.55377,-31.91425c-2.94434,-6.63238 -5.43488,-13.46508 -8.31342,-20.12823c-3.22949,-7.47534 -6.76635,-14.81836 -9.96753,-22.3053c-1.39898,-3.27173 -2.10003,-6.83911 -3.4613,-10.13031c-2.99725,-7.24615 -6.26569,-14.37952 -9.32684,-21.59991c-4.81293,-11.35211 -9.52478,-22.7472 -14.32697,-34.10401c-1.42132,-3.36126 -3.69122,-4.77819 -7.58807,-2.6651z" fill="#B9A86A"/>
  <path id="svg_10" d="m627.26645,1612.25812c2.05894,-0.73096 4.27392,-1.32459 6.49832,-1.36231c13.03798,-0.22082 11.28055,1.52063 11.31252,-11.55682c0.07814,-31.97119 0.1132,-63.94373 -0.11361,-95.91364c-0.04921,-6.93719 1.50032,-12.5603 7.07071,-17.12317c4.60591,-3.77288 8.66524,-8.21301 13.2919,-12.31543c-0.60598,1.78998 -1.20898,3.85303 -2.52891,5.22766c-4.18486,4.35828 -8.87683,8.24775 -12.87131,12.76215c-1.6498,1.86456 -2.84444,4.85254 -2.85712,7.33661c-0.18234,35.75159 -0.17392,71.50446 -0.07316,107.25671c0.0131,4.64942 -0.70964,7.05384 -6.35866,6.01124c-4.25418,-0.78504 -8.79636,-0.00965 -13.37068,-0.323z" fill="#B9A86A"/>
  <path id="svg_11" d="m883.26099,1036.31848c1.04779,-0.74731 2.25665,-1.40063 3.46649,-1.40234c36.22479,-0.0492 72.44958,-0.03589 108.67444,-0.01294c0.64612,0.00049 1.29205,0.23804 2.21069,0.67468c-0.37256,0.65808 -1.01794,1.31128 -1.66296,1.31091c-37.50904,-0.02319 -75.01807,-0.10046 -112.68866,-0.57031z" fill="#B9A86A"/>
  <path id="svg_15" d="m417.33154,733.6958c-0.07229,-0.97381 -0.09713,-2.16455 0.48587,-2.75146c7.008,-7.05408 14.10605,-14.01862 21.50638,-20.96381c-1.36871,2.57031 -2.73144,5.42188 -4.82226,7.56238c-5.44284,5.57202 -11.20517,10.83203 -17.16999,16.15289z" fill="#B9A86A"/>
  <path id="svg_16" d="m950.8009,822.62128c-1.52758,-2.27008 -3.15911,-4.82257 -4.35931,-7.56391c-2.63147,-6.01062 -5.04437,-12.11694 -7.47565,-18.55493c0.67267,-0.00568 1.61048,0.22107 1.82617,0.74506c3.42157,8.31274 6.75043,16.66363 10.00879,25.37378z" fill="#B9A86A"/>
  <path id="svg_17" d="m1021.28101,1036.24878c3.02209,-0.71399 6.19311,-1.08362 9.37158,-1.37085c3.40832,-0.30786 6.82361,-0.53857 10.62964,-0.8523c-0.68787,0.93921 -1.74183,2.74097 -2.85572,2.77918c-5.65588,0.19299 -11.32739,-0.07129 -17.1455,-0.55603z" fill="#B9A86A"/>
  <path id="svg_20" d="m978.79065,886.60168c-2.38056,-4.65124 -4.65442,-9.66815 -6.84082,-15.06433c2.37408,4.64667 4.66077,9.67267 6.84082,15.06433z" fill="#B9A86A"/>
  <path id="svg_21" d="m1032.74707,1010.62408c-2.15576,-3.81689 -4.21155,-7.99707 -6.03467,-12.38385c2.20008,3.86915 4.16736,7.94483 6.03467,12.38385z" fill="#B9A86A"/>
  <path id="svg_22" d="m1003.77393,943.62598c-2.04242,-3.66523 -3.98224,-7.69068 -5.8396,-12.08997c1.69677,2.61347 3.35345,5.5791 4.90106,8.60059c0.49536,0.96704 0.70227,2.08184 0.93854,3.48938z" fill="#B9A86A"/>
  <path id="svg_23" d="m997.88574,930.59143c-2.02124,-3.65631 -4.00744,-7.68774 -5.92139,-12.08679c1.69019,2.61188 3.34998,5.56988 4.90192,8.58343c0.49805,0.96729 0.71106,2.08136 1.01947,3.50336z" fill="#B9A86A"/>
  <path id="svg_24" d="m1015.8977,971.6084c-2.01519,-3.65686 -4.00366,-7.69055 -5.9201,-12.09021c1.68146,2.61413 3.3313,5.57355 4.87708,8.58636c0.49762,0.96997 0.72094,2.08069 1.04302,3.50385z" fill="#B9A86A"/>
  <path id="svg_25" d="m985.77429,902.61511c-2.02771,-3.67236 -3.95111,-7.70788 -5.8034,-12.11133c2.01672,3.67078 3.96221,7.70948 5.8034,12.11133z" fill="#B9A86A"/>
  <path id="svg_26" d="m955.78009,833.62634c-1.68774,-2.68707 -3.26825,-5.73944 -4.78839,-9.16296c1.67218,2.68512 3.28387,5.74139 4.78839,9.16296z" fill="#B9A86A"/>
  <path id="svg_27" d="m990.74719,913.63147c-1.69623,-2.70068 -3.28955,-5.7561 -4.82232,-9.19568c1.68212,2.69086 3.30365,5.76599 4.82232,9.19568z" fill="#B9A86A"/>
  <path id="svg_29" d="m1020.88599,983.58502c-1.70148,-3.31195 -3.37574,-7.00036 -4.96454,-11.06964c1.72082,3.31049 3.35626,7.00183 4.96454,11.06964z" fill="#B9A86A"/>
  <path id="svg_31" d="m937.72852,791.61981c-1.65949,-2.36963 -3.20649,-5.09277 -4.70563,-8.17853c4.7962,0.52643 2.48926,5.52625 4.70563,8.17853z" fill="#B9A86A"/>
  <path id="svg_33" d="m1037.76245,1021.60931c-1.68896,-2.67437 -3.27136,-5.70184 -4.78027,-9.09234c1.67798,2.67102 3.28247,5.70514 4.78027,9.09234z" fill="#B9A86A"/>
  <path id="svg_35" d="m411.36725,739.73315c1.31589,-1.97131 2.97134,-3.8941 4.95062,-5.77185c-1.32111,1.9701 -2.96606,3.89521 -4.95062,5.77185z" fill="#B9A86A"/>
  <path id="svg_36" d="m966.78558,858.62543c-1.38165,-2.0246 -2.65539,-4.40161 -3.8692,-7.14771c1.36566,2.01911 2.67139,4.40723 3.8692,7.14771z" fill="#B9A86A"/>
  <path id="svg_38" d="m1025.72754,993.63574c-1.51856,-2.15997 -2.93005,-4.65954 -4.08899,-7.34076c1.56708,2.21265 2.88159,4.60681 4.08899,7.34076z" fill="#B9A86A"/>
  <path id="svg_41" d="m960.79138,845.61243c-1.34839,-2.01862 -2.59308,-4.40009 -3.781,-7.14295c1.33264,2.01911 2.60864,4.39966 3.781,7.14295z" fill="#B9A86A"/>
  <path id="svg_42" d="m1007.75946,952.55798c-1.37591,-2.01117 -2.63715,-4.36633 -3.82959,-7.08331c1.36066,2.00525 2.65247,4.37232 3.82959,7.08331z" fill="#B9A86A"/>
  <path id="svg_45" d="m971.90192,870.58411c-1.02637,-1.32752 -2.01514,-3.02967 -2.93207,-5.09095c1.03784,1.33265 2.00372,3.02454 2.93207,5.09095z" fill="#B9A86A"/>
  <path id="svg_46" d="m1041.75879,1030.68188c-1.03711,-1.37792 -1.9646,-3.09667 -2.80505,-5.17065c1.02954,1.37305 1.97216,3.10144 2.80505,5.17065z" fill="#B9A86A"/>
  <path id="svg_48" d="m962.91907,850.6781c-0.68744,-0.72668 -1.35053,-1.78918 -1.93482,-3.20514c0.70551,0.72083 1.33234,1.79505 1.93482,3.20514z" fill="#B9A86A"/>
  <path id="svg_49" d="m1009.77588,957.66602c-0.71173,-0.73047 -1.31677,-1.77295 -1.8291,-3.14625c0.70709,0.72425 1.32141,1.77924 1.8291,3.14625z" fill="#B9A86A"/>
  <path id="svg_50" d="m1013.12701,1036.17432c0.49665,-0.46888 1.04493,-0.63379 1.68976,-0.5514c-0.48163,0.44996 -1.05987,0.65259 -1.68976,0.5514z" fill="#B9A86A"/>
  <path id="svg_51" d="m1026.71558,995.75134c-0.40296,0.25379 -0.61707,0.12018 -0.72046,-0.37781c0.38354,-0.32702 0.64978,-0.20873 0.72046,0.37781z" fill="#B9A86A"/>
  <path id="svg_52" d="m979.73645,888.76831c-0.40607,0.20874 -0.61578,0.04541 -0.71863,-0.46692c0.38471,-0.27496 0.65406,-0.12713 0.71863,0.46692z" fill="#B9A86A"/>
  <path id="svg_55" d="m1038.73157,1023.75647c-0.39368,0.2265 -0.60608,0.07916 -0.71765,-0.41766c0.37658,-0.29737 0.64257,-0.1662 0.71765,0.41766z" fill="#B9A86A"/>
  <path id="svg_58" d="m991.71088,915.78015c-0.40851,0.23145 -0.62287,0.07898 -0.72345,-0.43506c0.39032,-0.29962 0.65826,-0.16199 0.72345,0.43506z" fill="#B9A86A"/>
  <path id="svg_59" d="m1374.21133,675.93272c-0.31884,0.50747 -0.48718,0.70706 -0.82678,1.01345c-1.75232,1.66822 -3.35199,3.21382 -5.11719,5.05241c-0.31652,0.50738 -0.48822,0.70377 -0.83618,1.00145c-1.63434,1.41131 -3.11303,2.70333 -4.74377,4.29951c-0.38843,0.4821 -0.60492,0.68158 -0.94141,1.07324c-1.01959,1.3927 -1.89923,2.61479 -2.84119,4.17128c-15.62249,16.09561 -31.18353,31.85608 -46.74145,47.6196c-1.05328,1.06713 -2.07562,2.16472 -3.12543,3.23537c-20.06006,20.45877 -40.16046,40.87828 -60.17383,61.38263c-24.07983,24.67062 -48.11669,49.38341 -72.1134,74.13481c-16.11011,16.61679 -32.04217,33.40695 -48.2445,49.93274c-2.81324,2.86948 -2.56977,5.37897 -1.20936,8.49573c8.05768,18.461 16.07508,36.93954 24.12659,55.40326c11.77753,27.00836 23.58917,54.00186 35.3551,81.01529c11.96454,27.46975 23.89551,54.95422 35.83374,82.43542c16.24958,37.40576 32.46796,74.82514 48.74512,112.21888c14.01874,32.20556 28.12958,64.37109 42.14746,96.57708c13.95056,32.05139 27.80353,64.14533 41.75946,96.1944c13.09265,30.06653 26.27497,60.09393 39.39429,90.1488c4.19519,9.61084 8.3468,19.24109 12.45416,28.88977c1.72632,4.0553 1.10938,4.75592 -4.19519,4.75806c-43.32867,0.01764 -86.65741,0.01306 -129.98608,0.01587c-0.66632,0 -1.33258,0.00781 -2.4682,0.01861c-5.71979,-0.3385 -10.9671,-0.90686 -16.2215,-0.98181c-10.63757,-0.15173 -10.52753,-0.086 -14.3999,-9.78332c-6.03485,-15.11249 -12.08527,-30.22217 -18.4079,-45.21539c-8.82776,-20.93372 -17.81573,-41.80134 -26.91382,-62.61921c-9.36206,-21.42206 -19.07391,-42.69171 -28.36584,-64.14361c-4.88141,-11.26941 -9.03571,-22.85187 -13.80438,-34.17243c-4.76368,-11.30884 -9.89503,-22.46252 -14.84534,-33.69293c-5.41297,-12.28003 -10.82325,-24.5614 -16.19843,-36.85803c-6.97143,-15.94843 -13.97235,-31.88452 -20.83691,-47.87897c-5.23316,-12.1933 -10.14484,-24.52533 -15.43915,-36.69141c-4.6709,-10.73345 -9.85327,-21.24517 -14.48102,-31.99633c-5.10406,-11.85791 -9.78082,-23.89899 -14.74267,-35.81915c-3.98212,-9.5666 -7.9292,-19.15742 -12.32337,-28.53522c-0.93432,-1.9939 -3.737,-3.11231 -6.05499,-4.64704c-8.75708,-19.41403 -17.0824,-38.83941 -25.55859,-58.19873c-2.07624,-4.74203 -3.23871,-4.90692 -6.73005,-1.3222c-23.58825,24.21911 -47.13873,48.47501 -70.67401,72.7456c-4.16949,4.29975 -8.14178,8.79108 -12.3229,13.07904c-17.55966,18.00861 -35.1969,35.94159 -52.74369,53.96271c-22.18982,22.78967 -44.32574,45.63184 -66.47284,68.46314c-20.871,21.5158 -41.73016,43.04309 -62.58743,64.5722c-20.27752,20.93067 -40.54233,41.87378 -60.81976,62.80463c-21.08899,21.76861 -42.19837,43.51758 -63.26798,65.30499c-3.46835,3.58655 -7.07055,7.10864 -10.03474,11.08948c-1.42204,1.90967 -2.08769,4.81879 -2.09667,7.27887c-0.12947,35.49579 -0.08514,70.99206 -0.09225,106.48828c-0.00134,6.70984 -0.03188,6.74097 -6.62709,6.74328c-32.16327,0.01136 -64.32655,0.01111 -96.96226,0.01862c-2.38528,-0.35596 -4.2959,-1.01184 -6.21134,-1.02624c-10.99754,-0.08234 -22.00508,-0.26551 -32.99058,0.11871c-5.04634,0.17645 -6.47339,-1.28595 -6.46125,-6.39905c0.17572,-73.98852 0.14603,-147.97748 0.14512,-221.96637c-0.00286,-230.96521 -0.01455,-461.93048 -0.02201,-692.89571c-0.00041,-12.96421 0.00296,-12.94672 13.1414,-12.94432c41.82703,0.00762 83.65407,-0.00547 125.4811,0.00555c8.12483,0.00213 8.4497,0.45537 8.59431,8.42667c0.2021,11.13943 0.55821,22.27621 0.89653,33.41266c0.0243,0.7996 0.44098,1.58728 0.85378,2.70872c0.17857,191.21292 0.17857,382.09759 0.17857,572.98229c0.56818,0.31122 1.13634,0.6225 1.70452,0.93372c14.25299,-14.39429 28.50599,-28.78857 43.05598,-43.37616c6.45254,1.341 10.23125,-2.18152 13.92282,-6.32153c6.96471,-7.8108 13.9341,-15.63214 21.22981,-23.12964c11.82642,-12.15344 23.96878,-23.99866 35.88529,-36.06531c18.23059,-18.46039 36.4548,-36.92822 54.53247,-55.53784c7.29355,-7.50818 14.00583,-15.58231 21.32513,-23.06381c7.32743,-7.48975 15.23578,-14.40909 22.61633,-21.84946c13.24894,-13.35623 26.36469,-26.84686 39.4004,-40.41165c10.25427,-10.67047 20.25207,-21.58713 30.47888,-32.28446c2.8631,-2.99484 6.28091,-5.45495 9.19269,-8.40844c15.66357,-15.88803 31.22427,-31.87742 46.86514,-47.78797c21.95074,-22.32919 43.99554,-44.56634 65.87726,-66.96286c5.79992,-5.93637 11.00976,-12.44659 16.75354,-18.44134c4.13202,-4.31247 8.80212,-8.10392 13.05456,-12.30744c10.85883,-10.73401 21.79065,-21.4026 32.37995,-32.39908c19.15338,-19.88981 37.95318,-40.12043 57.14233,-59.9752c13.16632,-13.62296 26.90509,-26.69251 40.07623,-40.31091c8.89099,-9.19283 16.97797,-19.16598 25.91584,-28.30982c6.71777,-6.87253 14.03296,-13.20683 21.48754,-19.28341c2.03894,-1.66206 5.53821,-2.12747 8.36969,-2.13427c53.99121,-0.12974 107.98273,-0.10694 161.97419,-0.12261c3.45898,-0.001 6.91803,-0.0576 10.76965,0.02707c-1.66064,2.58435 -3.71393,5.05331 -5.93408,7.7995c-2.44886,2.40999 -4.7309,4.54274 -7.21143,6.96751c-1.65234,1.86319 -3.1062,3.43438 -4.70746,5.29509c-0.28228,0.50712 -0.45025,0.69496 -0.81225,0.95657c-1.77643,1.63771 -3.39209,3.17189 -5.17713,4.99812z" fill="#FBBF4A"/>
 </g>
</svg>