<svg version="1.1" id="Layer_1" xmlns="http://www.w3.org/2000/svg" xmlns:xlink="http://www.w3.org/1999/xlink" x="0px" y="0px"
	 width="100%" viewBox="0 0 1080 1080" enable-background="new 0 0 1080 1080" xml:space="preserve">
<path fill="#000000" opacity="1.000000" stroke="none" 
	d="
M739.000000,1081.000000 
	C492.695038,1081.000000 246.890076,1081.000000 1.042552,1081.000000 
	C1.042552,721.069885 1.042552,361.139832 1.042552,1.104865 
	C360.888519,1.104865 720.777100,1.104865 1080.832764,1.104865 
	C1080.832764,360.999939 1080.832764,720.999939 1080.832764,1081.000000 
	C967.139343,1081.000000 853.319641,1081.000000 739.000000,1081.000000 
M303.171936,261.980225 
	C301.780548,262.014832 300.389191,262.049408 298.147522,261.968170 
	C296.437897,262.006744 294.728302,262.045349 292.084473,261.979431 
	C285.036926,261.642395 277.991608,261.242859 270.940979,260.993439 
	C267.145508,260.859192 263.315369,260.735046 259.554199,261.123016 
	C258.230835,261.259491 257.066284,262.935364 254.989792,264.044373 
	C254.651321,265.382019 254.007782,266.722260 254.019073,268.056946 
	C254.290848,300.146393 254.628738,332.235260 254.962967,364.324188 
	C255.269516,393.755829 255.878998,423.187897 255.829590,452.618896 
	C255.754150,497.549194 255.200638,542.478516 254.897293,587.408630 
	C254.535538,640.991333 254.200882,694.574280 253.905350,748.157349 
	C253.826340,762.483032 254.206299,776.817322 253.813324,791.132202 
	C253.665558,796.514221 256.308563,797.758667 260.518951,797.907959 
	C265.678497,798.090942 270.853729,798.177795 276.010162,797.984802 
	C279.637115,797.849060 281.198090,799.071655 281.029327,802.838867 
	C280.813263,807.661133 280.947723,812.500488 280.978577,817.332092 
	C281.014496,822.961853 282.019348,824.009155 287.682465,824.015930 
	C313.007477,824.046021 338.332947,823.959717 363.657196,824.104797 
	C368.439240,824.132141 370.108093,822.317139 370.062744,817.615234 
	C369.895752,800.288696 369.648102,782.948425 370.211456,765.638733 
	C370.370270,760.758423 371.939087,754.857483 375.036591,751.340637 
	C384.102539,741.047119 394.307373,731.761414 403.986633,722.002136 
	C415.150116,710.746338 426.325195,699.499146 437.313171,688.073059 
	C445.685791,679.366638 453.647461,670.265137 462.017761,661.556396 
	C476.117737,646.886230 490.386932,632.378540 504.604034,617.821106 
	C513.654663,608.553772 522.765320,599.344849 531.803284,590.065247 
	C544.668030,576.856567 557.534180,563.648682 570.310120,550.354370 
	C575.427551,545.029236 580.452332,539.598755 585.230225,533.970825 
	C587.431458,531.377869 588.606812,531.069824 589.980530,534.424622 
	C592.252197,539.972534 594.680359,545.456238 596.976379,550.994446 
	C600.977234,560.644348 604.836731,570.353882 608.932922,579.962769 
	C611.422974,585.804016 614.382263,591.444824 616.891296,597.278625 
	C622.414001,610.119446 627.712280,623.056946 633.238892,635.896118 
	C638.458069,648.021301 643.940125,660.033325 649.145691,672.164246 
	C654.733826,685.186890 660.066711,698.319031 665.638489,711.348877 
	C669.993164,721.532654 674.610840,731.603882 678.982178,741.780701 
	C681.991882,748.787598 684.737732,755.907349 687.679077,762.944153 
	C690.720520,770.220581 694.470886,777.266296 696.802124,784.757996 
	C700.092773,795.333069 702.531860,797.920898 713.172058,797.927002 
	C716.115845,797.928711 718.202332,798.353882 719.213501,801.520508 
	C719.732422,803.145691 721.010315,804.528564 722.031860,806.619385 
	C722.288940,807.106445 722.546021,807.593567 722.956299,808.835693 
	C724.674072,813.573181 725.350647,818.862976 730.409607,822.735229 
	C731.927002,823.163879 733.443481,823.962524 734.961914,823.966309 
	C763.793762,824.038269 792.625977,824.060669 821.457458,823.928284 
	C823.708069,823.917969 825.953064,822.688721 828.712830,821.874939 
	C825.788452,815.907227 823.241150,811.092773 821.039368,806.125183 
	C817.808960,798.836792 814.909119,791.402283 811.714600,784.097351 
	C808.228394,776.125549 804.452026,768.279785 801.015991,760.287109 
	C797.949402,753.153687 795.350098,745.817932 792.235901,738.706665 
	C784.290955,720.564148 776.077820,702.539001 768.166931,684.381897 
	C764.361755,675.648010 761.218018,666.624695 757.373169,657.909668 
	C753.176941,648.398254 748.354736,639.164185 744.096985,629.678467 
	C738.246399,616.644165 732.673279,603.485474 726.974976,590.382812 
	C720.337891,575.121765 713.623413,559.893799 707.074158,544.595215 
	C701.210876,530.899109 695.548157,517.117310 689.754517,503.391205 
	C686.186768,494.938477 682.647522,486.470856 678.892090,478.101166 
	C676.126770,471.938232 673.078918,465.899872 670.069824,459.849335 
	C667.662292,455.008423 668.707520,449.809204 672.439087,446.141693 
	C683.761963,435.013031 695.082825,423.876160 706.148499,412.493713 
	C717.429871,400.889404 728.251953,388.837982 739.556763,377.257324 
	C754.527832,361.920929 769.770081,346.849335 784.900146,331.668274 
	C794.848083,321.686737 804.842896,311.751434 814.735840,301.715729 
	C818.446045,297.951965 821.927490,293.962555 825.216248,290.397919 
	C822.596924,285.611969 819.095398,285.484192 815.301758,286.288818 
	C812.800415,286.819336 810.324524,287.792389 807.812134,287.884552 
	C801.487305,288.116577 795.148376,287.961700 788.815063,287.961853 
	C784.904907,287.961914 780.994751,287.961853 777.084595,287.961853 
	C776.908569,287.524567 776.732483,287.087311 776.556458,286.650024 
	C780.453125,282.749512 784.323120,278.821808 788.254639,274.956757 
	C791.552002,271.715271 795.081543,268.688995 798.138733,265.239838 
	C798.847290,264.440369 798.585693,261.864532 797.796814,260.915558 
	C797.028748,259.991638 794.977783,259.707062 793.550354,259.831665 
	C787.014526,260.402130 780.505737,261.771515 773.976562,261.840546 
	C750.312622,262.090851 726.644409,261.943848 702.977844,261.909485 
	C701.338196,261.907104 699.681885,261.697815 698.062744,261.415863 
	C692.638977,260.471313 687.775757,261.197021 683.731689,265.398682 
	C670.646301,278.993958 657.556396,292.586060 644.346069,306.059570 
	C634.680786,315.917328 624.743042,325.507751 615.071045,335.359039 
	C602.341125,348.324982 589.675598,361.356415 577.145630,374.515167 
	C572.810730,379.067566 568.963684,384.084442 564.205994,389.000061 
	C563.053223,389.909210 561.796936,390.714478 560.763794,391.743744 
	C551.962830,400.511749 543.150513,409.269470 534.442505,418.129486 
	C522.785583,429.989929 511.156403,441.879059 499.633850,453.869812 
	C490.881348,462.977966 482.467651,472.414673 473.626862,481.434296 
	C461.154480,494.158997 448.400024,506.606781 435.819580,519.226196 
	C429.338684,525.727234 422.955872,532.326599 416.559875,538.911743 
	C406.574280,549.192566 396.592712,559.477478 386.654083,569.803650 
	C381.607361,575.047119 376.657959,580.384277 370.683167,586.719666 
	C370.365509,583.414978 370.003479,581.402100 370.002747,579.389038 
	C369.970215,489.111938 369.969421,398.834808 369.964996,308.557709 
	C369.964752,303.727448 369.808350,298.890472 370.013275,294.068878 
	C370.197479,289.734924 368.874573,287.621124 364.067505,287.882782 
	C358.092407,288.208069 352.082397,287.892670 345.714783,287.182129 
	C345.314728,282.425995 344.182495,277.589813 344.691742,272.933136 
	C345.399567,266.460388 344.017639,262.473358 338.064606,261.052704 
	C333.373657,261.396423 328.682678,261.740143 323.200043,261.968628 
	C322.136169,262.007050 321.072327,262.045471 319.098328,261.979492 
	C315.731720,262.014313 312.365082,262.049103 308.171661,261.968933 
	C306.781738,262.007294 305.391846,262.045654 303.171936,261.980225 
z"/>
<path fill="#596E63" opacity="1.000000" stroke="none" 
	d="
M721.945251,806.020874 
	C721.010315,804.528564 719.732422,803.145691 719.213501,801.520508 
	C718.202332,798.353882 716.115845,797.928711 713.172058,797.927002 
	C702.531860,797.920898 700.092773,795.333069 696.802124,784.757996 
	C694.470886,777.266296 690.720520,770.220581 687.679077,762.944153 
	C684.737732,755.907349 681.991882,748.787598 678.982178,741.780701 
	C674.610840,731.603882 669.993164,721.532654 665.638489,711.348877 
	C660.066711,698.319031 654.733826,685.186890 649.145691,672.164246 
	C643.940125,660.033325 638.458069,648.021301 633.238892,635.896118 
	C627.712280,623.056946 622.414001,610.119446 616.891296,597.278625 
	C614.382263,591.444824 611.422974,585.804016 608.932922,579.962769 
	C604.836731,570.353882 600.977234,560.644348 596.976379,550.994446 
	C594.680359,545.456238 592.252197,539.972534 589.980530,534.424622 
	C588.606812,531.069824 587.431458,531.377869 585.230225,533.970825 
	C580.452332,539.598755 575.427551,545.029236 570.310120,550.354370 
	C557.534180,563.648682 544.668030,576.856567 531.803284,590.065247 
	C522.765320,599.344849 513.654663,608.553772 504.604034,617.821106 
	C490.386932,632.378540 476.117737,646.886230 462.017761,661.556396 
	C453.647461,670.265137 445.685791,679.366638 437.313171,688.073059 
	C426.325195,699.499146 415.150116,710.746338 403.986633,722.002136 
	C394.307373,731.761414 384.102539,741.047119 375.036591,751.340637 
	C371.939087,754.857483 370.370270,760.758423 370.211456,765.638733 
	C369.648102,782.948425 369.895752,800.288696 370.062744,817.615234 
	C370.108093,822.317139 368.439240,824.132141 363.657196,824.104797 
	C338.332947,823.959717 313.007477,824.046021 287.682465,824.015930 
	C282.019348,824.009155 281.014496,822.961853 280.978577,817.332092 
	C280.947723,812.500488 280.813263,807.661133 281.029327,802.838867 
	C281.198090,799.071655 279.637115,797.849060 276.010162,797.984802 
	C270.853729,798.177795 265.678497,798.090942 260.518951,797.907959 
	C256.308563,797.758667 253.665558,796.514221 253.813324,791.132202 
	C254.206299,776.817322 253.826340,762.483032 253.905350,748.157349 
	C254.200882,694.574280 254.535538,640.991333 254.897293,587.408630 
	C255.200638,542.478516 255.754150,497.549194 255.829590,452.618896 
	C255.878998,423.187897 255.269516,393.755829 254.962967,364.324188 
	C254.628738,332.235260 254.290848,300.146393 254.019073,268.056946 
	C254.007782,266.722260 254.651321,265.382019 255.706207,264.006317 
	C256.620972,263.984375 256.819275,264.000488 257.011108,264.484070 
	C256.915131,267.779541 256.747833,270.607483 256.747589,273.435455 
	C256.739746,361.695831 256.752716,449.956177 256.752808,538.216553 
	C256.752899,621.481262 256.741608,704.745911 256.736725,788.010620 
	C256.736298,794.884583 256.741821,794.836914 263.395508,794.911621 
	C269.876770,794.984375 276.356750,795.168701 282.866699,795.752075 
	C282.991943,802.694214 283.333435,809.197388 283.096100,815.679382 
	C282.941650,819.897400 284.022003,821.535339 288.598206,821.497925 
	C313.419952,821.295105 338.244720,821.323975 363.067169,821.479675 
	C367.145203,821.505188 368.557068,820.330383 368.515503,816.139160 
	C368.332062,797.648376 368.548248,779.153809 368.372009,760.662903 
	C368.331146,756.374329 369.537750,753.238892 372.580597,750.105896 
	C429.569427,691.427429 486.433868,632.628296 543.349792,573.878967 
	C558.298401,558.448853 573.332581,543.101562 588.606689,527.905396 
	C590.022522,530.097229 591.357849,532.014038 592.264587,534.115784 
	C600.508362,553.224548 608.630249,572.385925 616.877930,591.492981 
	C636.146790,636.132385 655.478882,680.744446 674.758118,725.379456 
	C684.199219,747.237183 693.632568,769.098633 702.923401,791.020325 
	C704.157959,793.933105 705.738098,795.101562 708.890503,794.963196 
	C712.529541,794.803406 716.191589,795.169189 719.967346,795.633423 
	C721.444763,799.293579 722.798462,802.627075 723.784302,805.971436 
	C722.926086,805.995117 722.435669,806.007996 721.945251,806.020874 
z"/>
<path fill="#5E7166" opacity="1.000000" stroke="none" 
	d="
M564.893738,388.889160 
	C568.963684,384.084442 572.810730,379.067566 577.145630,374.515167 
	C589.675598,361.356415 602.341125,348.324982 615.071045,335.359039 
	C624.743042,325.507751 634.680786,315.917328 644.346069,306.059570 
	C657.556396,292.586060 670.646301,278.993958 683.731689,265.398682 
	C687.775757,261.197021 692.638977,260.471313 698.062744,261.415863 
	C699.681885,261.697815 701.338196,261.907104 702.977844,261.909485 
	C726.644409,261.943848 750.312622,262.090851 773.976562,261.840546 
	C780.505737,261.771515 787.014526,260.402130 793.550354,259.831665 
	C794.977783,259.707062 797.028748,259.991638 797.796814,260.915558 
	C798.585693,261.864532 798.847290,264.440369 798.138733,265.239838 
	C795.081543,268.688995 791.552002,271.715271 788.254639,274.956757 
	C784.323120,278.821808 780.453125,282.749512 776.556458,286.650024 
	C776.732483,287.087311 776.908569,287.524567 777.084595,287.961853 
	C780.994751,287.961853 784.904907,287.961914 788.815063,287.961853 
	C795.148376,287.961700 801.487305,288.116577 807.812134,287.884552 
	C810.324524,287.792389 812.800415,286.819336 815.301758,286.288818 
	C819.095398,285.484192 822.596924,285.611969 825.216248,290.397919 
	C821.927490,293.962555 818.446045,297.951965 814.735840,301.715729 
	C804.842896,311.751434 794.848083,321.686737 784.900146,331.668274 
	C769.770081,346.849335 754.527832,361.920929 739.556763,377.257324 
	C728.251953,388.837982 717.429871,400.889404 706.148499,412.493713 
	C695.082825,423.876160 683.761963,435.013031 672.439087,446.141693 
	C668.707520,449.809204 667.662292,455.008423 670.069824,459.849335 
	C673.078918,465.899872 676.126770,471.938232 678.892090,478.101166 
	C682.647522,486.470856 686.186768,494.938477 689.754517,503.391205 
	C695.548157,517.117310 701.210876,530.899109 707.074158,544.595215 
	C713.623413,559.893799 720.337891,575.121765 726.974976,590.382812 
	C732.673279,603.485474 738.246399,616.644165 744.096985,629.678467 
	C748.354736,639.164185 753.176941,648.398254 757.373169,657.909668 
	C761.218018,666.624695 764.361755,675.648010 768.166931,684.381897 
	C776.077820,702.539001 784.290955,720.564148 792.235901,738.706665 
	C795.350098,745.817932 797.949402,753.153687 801.015991,760.287109 
	C804.452026,768.279785 808.228394,776.125549 811.714600,784.097351 
	C814.909119,791.402283 817.808960,798.836792 821.039368,806.125183 
	C823.241150,811.092773 825.788452,815.907227 828.712830,821.874939 
	C825.953064,822.688721 823.708069,823.917969 821.457458,823.928284 
	C792.625977,824.060669 763.793762,824.038269 734.961914,823.966309 
	C733.443481,823.962524 731.927002,823.163879 730.295898,821.953735 
	C730.254944,820.876526 730.327698,820.580750 730.791382,820.520630 
	C732.653442,820.958801 734.124512,821.336243 735.596069,821.338135 
	C763.919983,821.374451 792.243896,821.371948 820.567871,821.351685 
	C821.843811,821.350769 823.119629,821.106934 824.999268,820.914429 
	C824.156982,818.851746 823.521240,817.186462 822.804199,815.556946 
	C819.249390,807.478027 815.629822,799.427307 812.111450,791.332642 
	C789.278137,738.800964 766.495972,686.247009 743.637390,633.726379 
	C717.856812,574.491943 692.037476,515.274414 666.138062,456.091919 
	C664.578064,452.527283 664.982361,450.282928 667.793518,447.402435 
	C717.713623,396.251373 767.502625,344.972351 817.306213,293.707611 
	C818.271484,292.713959 819.072266,291.560486 819.949829,290.481598 
	C819.813232,289.893219 819.676575,289.304840 819.539978,288.716461 
	C803.305908,288.716461 787.071838,288.716461 770.972290,288.412659 
	C778.483643,280.168427 785.860413,272.228027 794.172119,263.281250 
	C789.314392,263.281250 785.908569,263.281433 782.502808,263.281219 
	C753.850037,263.279510 725.196533,263.375336 696.545044,263.182526 
	C691.611511,263.149353 687.908752,264.547791 684.729309,268.245789 
	C682.574585,270.752045 679.866882,272.773193 677.552002,275.152954 
	C651.449585,301.987854 625.367432,328.842529 599.297607,355.709167 
	C589.333618,365.977692 579.435242,376.309967 569.448425,386.556152 
	C568.321594,387.712219 566.813354,388.496460 565.334839,389.312195 
	C565.187805,389.171234 564.893738,388.889130 564.893738,388.889160 
z"/>
<path fill="#5E7166" opacity="1.000000" stroke="none" 
	d="
M346.087463,287.853973 
	C352.082397,287.892670 358.092407,288.208069 364.067505,287.882782 
	C368.874573,287.621124 370.197479,289.734924 370.013275,294.068878 
	C369.808350,298.890472 369.964752,303.727448 369.964996,308.557709 
	C369.969421,398.834808 369.970215,489.111938 370.002747,579.389038 
	C370.003479,581.402100 370.365509,583.414978 370.683167,586.719666 
	C376.657959,580.384277 381.607361,575.047119 386.654083,569.803650 
	C396.592712,559.477478 406.574280,549.192566 416.559875,538.911743 
	C422.955872,532.326599 429.338684,525.727234 435.819580,519.226196 
	C448.400024,506.606781 461.154480,494.158997 473.626862,481.434296 
	C482.467651,472.414673 490.881348,462.977966 499.633850,453.869812 
	C511.156403,441.879059 522.785583,429.989929 534.442505,418.129486 
	C543.150513,409.269470 551.962830,400.511749 560.763794,391.743744 
	C561.796936,390.714478 563.053223,389.909210 564.549866,388.944580 
	C564.893738,388.889130 565.187805,389.171234 565.188232,389.615601 
	C552.200684,403.415314 539.221252,416.778931 526.222839,430.124176 
	C497.672516,459.436310 469.105194,488.731903 440.559204,518.048340 
	C420.012939,539.149170 399.547974,560.329834 378.892914,581.323547 
	C375.858124,584.408142 371.969849,586.652954 368.444366,588.796143 
	C368.417786,542.154785 368.426666,496.003693 368.427948,449.852600 
	C368.429382,398.535797 368.360992,347.218811 368.520020,295.902496 
	C368.535706,290.844482 366.952881,289.062439 361.953308,289.298309 
	C356.652405,289.548401 351.320038,289.131500 346.021606,288.717834 
	C346.056976,288.237793 346.072235,288.045898 346.087463,287.853973 
z"/>
<path fill="#5E7166" opacity="1.000000" stroke="none" 
	d="
M257.017609,264.016602 
	C256.819275,264.000488 256.620972,263.984375 256.125916,263.938293 
	C257.066284,262.935364 258.230835,261.259491 259.554199,261.123016 
	C263.315369,260.735046 267.145508,260.859192 270.940979,260.993439 
	C277.991608,261.242859 285.036926,261.642395 292.561188,262.275848 
	C293.051544,262.898193 293.047577,263.223907 292.560608,263.475159 
	C282.359558,263.203827 272.623962,263.006744 262.741791,262.781555 
	C262.105469,262.766724 261.615662,262.779999 260.729431,262.958130 
	C259.227875,263.420868 258.122742,263.718719 257.017609,264.016602 
z"/>
<path fill="#596E63" opacity="1.000000" stroke="none" 
	d="
M345.901123,287.518066 
	C346.072235,288.045898 346.056976,288.237793 345.679871,288.789520 
	C344.393768,289.082275 343.469513,289.015228 342.407043,288.499847 
	C342.164642,281.265045 341.988678,274.478516 341.990753,267.692078 
	C341.991608,264.872528 341.197876,263.161041 338.128571,263.293945 
	C338.476746,262.430145 338.724609,261.799774 338.972473,261.169434 
	C344.017639,262.473358 345.399567,266.460388 344.691742,272.933136 
	C344.182495,277.589813 345.314728,282.425995 345.901123,287.518066 
z"/>
<path fill="#596E63" opacity="1.000000" stroke="none" 
	d="
M730.400513,820.285034 
	C730.327698,820.580750 730.254944,820.876526 730.076477,821.616699 
	C725.350647,818.862976 724.674072,813.573181 723.253540,808.438965 
	C724.049805,808.023682 724.548889,808.005066 725.296631,808.242065 
	C727.163757,812.426819 728.782104,816.355957 730.400513,820.285034 
z"/>
<path fill="#5E7166" opacity="1.000000" stroke="none" 
	d="
M338.518524,261.111084 
	C338.724609,261.799774 338.476746,262.430145 337.664551,263.239563 
	C332.725006,263.462921 328.349731,263.507233 323.967407,263.306885 
	C323.963654,262.735870 323.974121,262.409760 323.991730,262.083893 
	C328.682678,261.740143 333.373657,261.396423 338.518524,261.111084 
z"/>
<path fill="#5E7166" opacity="1.000000" stroke="none" 
	d="
M308.998474,262.083893 
	C312.365082,262.049103 315.731720,262.014313 319.563721,262.276154 
	C320.044281,262.899048 320.043121,263.225250 319.570374,263.475342 
	C315.734802,263.449677 312.354401,263.499969 308.971588,263.305969 
	C308.976166,262.735657 308.985931,262.409729 308.998474,262.083893 
z"/>
<path fill="#596E63" opacity="1.000000" stroke="none" 
	d="
M293.026031,263.549438 
	C293.047577,263.223907 293.051544,262.898193 293.028290,262.328125 
	C294.728302,262.045349 296.437897,262.006744 298.564087,262.270752 
	C298.966156,262.899475 298.964264,263.225739 298.556274,263.463348 
	C296.433716,263.432922 294.729889,263.491180 293.026031,263.549438 
z"/>
<path fill="#596E63" opacity="1.000000" stroke="none" 
	d="
M308.585083,262.026428 
	C308.985931,262.409729 308.976166,262.735657 308.564758,263.218964 
	C306.781891,263.434784 305.403503,263.493286 304.028381,263.307068 
	C304.025330,262.736115 304.015411,262.410004 304.001923,262.084015 
	C305.391846,262.045654 306.781738,262.007294 308.585083,262.026428 
z"/>
<path fill="#5E7166" opacity="1.000000" stroke="none" 
	d="
M303.586914,262.032104 
	C304.015411,262.410004 304.025330,262.736115 303.611542,263.232788 
	C301.785919,263.452850 300.380432,263.502441 298.974945,263.552032 
	C298.964264,263.225739 298.966156,262.899475 298.989197,262.328674 
	C300.389191,262.049408 301.780548,262.014832 303.586914,262.032104 
z"/>
<path fill="#596E63" opacity="1.000000" stroke="none" 
	d="
M320.025574,263.551331 
	C320.043121,263.225250 320.044281,262.899048 320.018768,262.328369 
	C321.072327,262.045471 322.136169,262.007050 323.595886,262.026245 
	C323.974121,262.409760 323.963654,262.735870 323.577759,263.220245 
	C322.138641,263.435974 321.082123,263.493652 320.025574,263.551331 
z"/>
<path fill="#5E7166" opacity="1.000000" stroke="none" 
	d="
M725.047913,807.986450 
	C724.548889,808.005066 724.049805,808.023682 723.176880,808.061462 
	C722.546021,807.593567 722.288940,807.106445 721.988525,806.320129 
	C722.435669,806.007996 722.926086,805.995117 723.995239,806.166748 
	C724.731934,806.896301 724.889954,807.441406 725.047913,807.986450 
z"/>
<path fill="#FABE4A" opacity="1.000000" stroke="none" 
	d="
M319.570374,263.475342 
	C321.082123,263.493652 322.138641,263.435974 323.584839,263.464905 
	C328.349731,263.507233 332.725006,263.462921 337.564270,263.472992 
	C341.197876,263.161041 341.991608,264.872528 341.990753,267.692078 
	C341.988678,274.478516 342.164642,281.265045 342.364929,288.967957 
	C342.437958,290.383514 342.394714,290.882599 342.394653,291.381714 
	C342.378998,397.641632 342.364136,503.901581 342.376465,610.161499 
	C342.376648,611.642151 342.719269,613.122864 343.077850,616.027588 
	C352.248688,606.372009 360.362579,597.829224 368.476471,589.286377 
	C371.969849,586.652954 375.858124,584.408142 378.892914,581.323547 
	C399.547974,560.329834 420.012939,539.149170 440.559204,518.048340 
	C469.105194,488.731903 497.672516,459.436310 526.222839,430.124176 
	C539.221252,416.778931 552.200684,403.415314 565.335327,389.756561 
	C566.813354,388.496460 568.321594,387.712219 569.448425,386.556152 
	C579.435242,376.309967 589.333618,365.977692 599.297607,355.709167 
	C625.367432,328.842529 651.449585,301.987854 677.552002,275.152954 
	C679.866882,272.773193 682.574585,270.752045 684.729309,268.245789 
	C687.908752,264.547791 691.611511,263.149353 696.545044,263.182526 
	C725.196533,263.375336 753.850037,263.279510 782.502808,263.281219 
	C785.908569,263.281433 789.314392,263.281250 794.172119,263.281250 
	C785.860413,272.228027 778.483643,280.168427 770.705383,288.615906 
	C769.807434,289.567383 769.282349,289.983887 768.818726,290.460236 
	C726.281311,334.164612 683.766968,377.891418 641.167358,421.535065 
	C638.754089,424.007477 638.701355,426.071716 640.010620,429.046295 
	C649.945618,451.618134 659.733459,474.254730 669.575928,496.867310 
	C711.805237,593.888000 754.040894,690.905884 796.246338,787.936890 
	C797.125366,789.957886 797.667603,792.125427 798.727661,795.306824 
	C771.741028,795.306824 745.792358,795.306824 719.843689,795.306824 
	C716.191589,795.169189 712.529541,794.803406 708.890503,794.963196 
	C705.738098,795.101562 704.157959,793.933105 702.923401,791.020325 
	C693.632568,769.098633 684.199219,747.237183 674.758118,725.379456 
	C655.478882,680.744446 636.146790,636.132385 616.877930,591.492981 
	C608.630249,572.385925 600.508362,553.224548 592.264587,534.115784 
	C591.357849,532.014038 590.022522,530.097229 588.493835,527.559814 
	C583.041199,515.201477 577.980774,503.377838 572.920288,491.554230 
	C572.067200,491.203003 571.214111,490.851776 570.360962,490.500580 
	C569.474487,492.136963 568.901306,494.076172 567.655518,495.365295 
	C541.147461,522.794128 514.550171,550.136780 487.997742,577.522827 
	C440.922394,626.076172 393.887817,674.669128 346.749756,723.161438 
	C343.618713,726.382446 342.233429,729.695801 342.283691,734.209167 
	C342.483948,752.196838 342.382782,770.188171 342.348755,788.178040 
	C342.335876,794.983215 342.186005,795.098633 335.302887,795.126465 
	C317.814423,795.197083 300.325836,795.246277 282.837311,795.304077 
	C276.356750,795.168701 269.876770,794.984375 263.395508,794.911621 
	C256.741821,794.836914 256.736298,794.884583 256.736725,788.010620 
	C256.741608,704.745911 256.752899,621.481262 256.752808,538.216553 
	C256.752716,449.956177 256.739746,361.695831 256.747589,273.435455 
	C256.747833,270.607483 256.915131,267.779541 257.011108,264.484070 
	C258.122742,263.718719 259.227875,263.420868 260.937439,263.062805 
	C261.990692,262.938293 262.439514,262.873993 262.888336,262.809692 
	C272.623962,263.006744 282.359558,263.203827 292.560608,263.475159 
	C294.729889,263.491180 296.433716,263.432922 298.556274,263.463348 
	C300.380432,263.502441 301.785919,263.452850 303.608246,263.477539 
	C305.403503,263.493286 306.781891,263.434784 308.567139,263.463257 
	C312.354401,263.499969 315.734802,263.449677 319.570374,263.475342 
z"/>
<path fill="#E9E1B5" opacity="1.000000" stroke="none" 
	d="
M282.866699,795.752014 
	C300.325836,795.246277 317.814423,795.197083 335.302887,795.126465 
	C342.186005,795.098633 342.335876,794.983215 342.348755,788.178040 
	C342.382782,770.188171 342.483948,752.196838 342.283691,734.209167 
	C342.233429,729.695801 343.618713,726.382446 346.749756,723.161438 
	C393.887817,674.669128 440.922394,626.076172 487.997742,577.522827 
	C514.550171,550.136780 541.147461,522.794128 567.655518,495.365295 
	C568.901306,494.076172 569.474487,492.136963 570.360962,490.500580 
	C571.214111,490.851776 572.067200,491.203003 572.920288,491.554230 
	C577.980774,503.377838 583.041199,515.201477 588.214539,527.370605 
	C573.332581,543.101562 558.298401,558.448853 543.349792,573.878967 
	C486.433868,632.628296 429.569427,691.427429 372.580597,750.105896 
	C369.537750,753.238892 368.331146,756.374329 368.372009,760.662903 
	C368.548248,779.153809 368.332062,797.648376 368.515503,816.139160 
	C368.557068,820.330383 367.145203,821.505188 363.067169,821.479675 
	C338.244720,821.323975 313.419952,821.295105 288.598206,821.497925 
	C284.022003,821.535339 282.941650,819.897400 283.096100,815.679382 
	C283.333435,809.197388 282.991943,802.694214 282.866699,795.752014 
z"/>
<path fill="#E8E0B5" opacity="1.000000" stroke="none" 
	d="
M719.967346,795.633423 
	C745.792358,795.306824 771.741028,795.306824 798.727661,795.306824 
	C797.667603,792.125427 797.125366,789.957886 796.246338,787.936890 
	C754.040894,690.905884 711.805237,593.888000 669.575928,496.867310 
	C659.733459,474.254730 649.945618,451.618134 640.010620,429.046295 
	C638.701355,426.071716 638.754089,424.007477 641.167358,421.535065 
	C683.766968,377.891418 726.281311,334.164612 768.818726,290.460236 
	C769.282349,289.983887 769.807434,289.567383 770.570801,288.919739 
	C787.071838,288.716461 803.305908,288.716461 819.539978,288.716461 
	C819.676575,289.304840 819.813232,289.893219 819.949829,290.481598 
	C819.072266,291.560486 818.271484,292.713959 817.306213,293.707611 
	C767.502625,344.972351 717.713623,396.251373 667.793518,447.402435 
	C664.982361,450.282928 664.578064,452.527283 666.138062,456.091919 
	C692.037476,515.274414 717.856812,574.491943 743.637390,633.726379 
	C766.495972,686.247009 789.278137,738.800964 812.111450,791.332642 
	C815.629822,799.427307 819.249390,807.478027 822.804199,815.556946 
	C823.521240,817.186462 824.156982,818.851746 824.999268,820.914429 
	C823.119629,821.106934 821.843811,821.350769 820.567871,821.351685 
	C792.243896,821.371948 763.919983,821.374451 735.596069,821.338135 
	C734.124512,821.336243 732.653442,820.958801 730.791382,820.520630 
	C728.782104,816.355957 727.163757,812.426819 725.296631,808.242065 
	C724.889954,807.441406 724.731934,806.896301 724.363037,806.155884 
	C722.798462,802.627075 721.444763,799.293579 719.967346,795.633423 
z"/>
<path fill="#E7DFB3" opacity="1.000000" stroke="none" 
	d="
M368.444366,588.796143 
	C360.362579,597.829224 352.248688,606.372009 343.077850,616.027588 
	C342.719269,613.122864 342.376648,611.642151 342.376465,610.161499 
	C342.364136,503.901581 342.378998,397.641632 342.394653,291.381714 
	C342.394714,290.882599 342.437958,290.383514 342.503143,289.416290 
	C343.469513,289.015228 344.393768,289.082275 345.659729,289.077637 
	C351.320038,289.131500 356.652405,289.548401 361.953308,289.298309 
	C366.952881,289.062439 368.535706,290.844482 368.520020,295.902496 
	C368.360992,347.218811 368.429382,398.535797 368.427948,449.852600 
	C368.426666,496.003693 368.417786,542.154785 368.444366,588.796143 
z"/>
<path fill="#596E63" opacity="1.000000" stroke="none" 
	d="
M262.741791,262.781555 
	C262.439514,262.873993 261.990692,262.938293 261.333862,262.897949 
	C261.615662,262.779999 262.105469,262.766724 262.741791,262.781555 
z"/>
</svg>