<svg version="1.1" id="Layer_1" xmlns="http://www.w3.org/2000/svg" xmlns:xlink="http://www.w3.org/1999/xlink" x="0px" y="0px"
	 width="100%" viewBox="0 0 1080 1080" enable-background="new 0 0 1080 1080" xml:space="preserve">
<path fill="#000000" opacity="1.000000" stroke="none" 
	d="
M1081.000000,395.000000 
	C1081.000000,623.973572 1081.000000,852.447205 1081.000000,1080.960449 
	C721.068054,1080.960449 361.136108,1080.960449 1.102075,1080.960449 
	C1.102075,721.109680 1.102075,361.219360 1.102075,1.164517 
	C360.999939,1.164517 720.999939,1.164517 1081.000000,1.164517 
	C1081.000000,132.197357 1081.000000,263.348663 1081.000000,395.000000 
M950.558167,92.910271 
	C950.847656,92.712471 951.028809,92.442093 951.802002,91.983246 
	C953.213989,90.668381 954.625916,89.353523 956.512024,87.862900 
	C956.681519,87.581947 956.851074,87.300987 957.722046,86.962234 
	C959.144653,85.303978 960.567261,83.645721 962.470825,81.823402 
	C962.636230,81.539314 962.801575,81.255226 963.656921,80.891617 
	C965.118408,79.275505 966.579895,77.659401 968.528870,75.895447 
	C968.706848,75.616371 968.884766,75.337296 969.770020,75.006531 
	C971.905396,73.025604 974.040710,71.044678 976.782715,68.808609 
	C978.202332,66.887093 979.621948,64.965576 981.749878,62.950867 
	C984.536804,60.919434 987.323730,58.888000 990.753540,56.656147 
	C991.684937,55.159229 992.616333,53.662312 993.578552,52.115864 
	C990.080444,47.784981 985.958191,49.625950 981.188354,51.332115 
	C976.197754,51.563747 971.207397,51.991489 966.216553,51.996582 
	C917.888855,52.045895 869.561035,52.012276 821.233276,52.040581 
	C816.127869,52.043568 811.020264,52.238068 805.919067,52.465549 
	C804.730652,52.518543 803.269104,52.731121 802.441040,53.452885 
	C799.459106,56.052029 796.659424,58.865467 793.860229,61.667263 
	C792.122986,63.406200 790.620667,65.389252 788.818115,67.051506 
	C785.747803,69.882858 782.281677,72.316795 779.411438,75.327240 
	C771.657166,83.460320 764.161865,91.839638 756.502686,100.064323 
	C747.124084,110.135437 737.808228,120.270195 728.208618,130.127518 
	C724.328857,134.111389 719.456482,137.129364 715.582092,141.117554 
	C705.460083,151.536774 695.647339,162.256149 685.691284,172.837082 
	C684.031921,174.600601 682.215149,176.216736 680.568604,177.991440 
	C673.201721,185.931610 666.039185,194.069321 658.483154,201.824173 
	C648.821594,211.739960 638.828552,221.332108 629.024353,231.109756 
	C621.084290,239.028305 613.190674,246.993774 605.325562,254.986801 
	C603.441223,256.901764 601.851257,259.107574 599.954773,261.008972 
	C594.757751,266.219635 589.334045,271.210266 584.258423,276.534241 
	C579.822327,281.187439 575.880737,286.311127 571.460205,290.980408 
	C566.074463,296.669281 560.425049,302.108978 554.872070,307.638824 
	C552.530823,309.970337 550.141724,312.253784 547.779663,314.564423 
	C545.584961,316.711273 543.411621,318.880096 541.203003,321.012451 
	C538.139160,323.970520 534.978943,326.832458 531.989685,329.863403 
	C527.098999,334.822205 522.336792,339.907471 517.473145,344.893280 
	C514.691833,347.744537 511.732941,350.425446 509.003510,353.323822 
	C504.461578,358.146973 500.132111,363.171967 495.542542,367.947998 
	C490.538147,373.155762 485.271698,378.111115 480.242126,383.295502 
	C473.248138,390.504700 466.459259,397.914856 459.387146,405.045135 
	C457.108612,407.342407 453.877289,408.709717 451.660461,411.050446 
	C443.864502,419.282227 436.410950,427.837677 428.645599,436.099365 
	C424.122833,440.911194 419.115021,445.266052 414.572723,450.060791 
	C407.818115,457.190826 401.506195,464.750854 394.584961,471.709229 
	C388.673553,477.652374 381.895050,482.734344 375.998566,488.690704 
	C368.950500,495.810425 362.532318,503.549133 355.653015,510.842102 
	C350.294983,516.522339 344.650787,521.932800 339.130157,527.459534 
	C333.492523,533.103455 327.799255,538.692932 322.225922,544.399597 
	C317.372986,549.368713 312.675934,554.489563 307.867340,559.502441 
	C304.054138,563.477661 300.213593,567.428223 296.319885,571.324463 
	C287.081055,580.569031 277.670105,589.645813 268.585907,599.039124 
	C261.954376,605.896362 255.984238,613.405029 249.199280,620.096008 
	C246.628845,622.630798 244.850967,627.680237 238.932724,625.593933 
	C238.932724,623.831055 238.932526,621.864502 238.932739,619.898010 
	C238.935944,591.204468 238.941437,562.510925 238.942032,533.817383 
	C238.943604,457.826111 238.943222,381.834869 238.943390,305.843597 
	C238.943527,239.184601 238.944885,172.525589 238.941101,105.866585 
	C238.940704,98.719742 238.111816,97.826927 231.077499,98.174919 
	C223.053574,98.209938 215.029648,98.244957 206.132324,98.041107 
	C204.966324,98.027458 203.799698,97.982384 202.634399,98.005112 
	C193.266068,98.187805 191.789398,96.041946 191.893890,87.082611 
	C192.014374,76.750984 191.850128,66.416016 191.975784,56.084515 
	C192.007767,53.454723 191.480209,51.974022 188.506363,52.008316 
	C181.469315,52.089478 174.430618,52.025398 167.392578,52.024921 
	C130.893723,52.022453 94.394836,52.034447 57.896034,51.986671 
	C55.796467,51.983921 53.686562,51.565765 51.600422,51.224937 
	C46.121674,50.329838 42.004868,53.186024 41.033024,58.802776 
	C40.559479,61.539608 40.097553,64.331551 40.124977,67.093636 
	C40.366009,91.368156 40.978333,115.641396 40.995045,139.915344 
	C41.088779,276.082275 41.051167,412.249329 41.049973,548.416321 
	C41.048870,673.912354 41.078823,799.408325 40.987976,924.904358 
	C40.973301,945.177551 40.479527,965.452148 40.026478,985.722046 
	C39.922096,990.392334 41.330399,991.992126 46.290569,991.841187 
	C59.351559,991.443787 72.432640,991.706726 85.754036,991.706726 
	C86.041428,992.371094 86.582275,993.621399 87.203644,995.696899 
	C87.250977,996.800049 87.298317,997.903259 87.091881,999.878479 
	C87.176155,1002.913391 87.260429,1005.948242 87.241714,1009.688171 
	C87.211723,1010.162048 87.181740,1010.635864 86.354431,1011.430176 
	C86.272118,1016.899597 86.167351,1022.368835 86.112915,1027.838501 
	C86.037643,1035.402832 86.732483,1036.690796 95.136101,1036.874878 
	C107.910950,1037.154785 120.696457,1036.980469 133.476959,1036.912598 
	C134.616486,1036.906494 135.752625,1036.265381 137.834900,1035.799438 
	C164.925278,1035.820923 192.015656,1035.842407 219.426773,1036.652100 
	C223.840744,1036.571411 228.382919,1035.796021 232.637100,1036.581055 
	C238.286118,1037.623657 239.008865,1035.219238 238.995758,1030.569824 
	C238.895004,994.817566 238.886581,959.064697 239.068924,923.313110 
	C239.081604,920.829041 240.276245,917.841064 241.926041,915.976501 
	C245.920517,911.462097 250.612488,907.572632 254.797348,903.214355 
	C256.117279,901.839722 256.720276,899.776672 257.911407,897.906616 
	C257.911407,897.906616 258.032928,897.646362 258.679749,897.734802 
	C260.321869,895.824280 261.963989,893.913757 263.877686,891.876892 
	C263.877686,891.876892 264.004517,891.605530 264.662872,891.766602 
	C273.894135,882.799255 283.146729,873.853455 292.300354,864.807617 
	C292.816681,864.297485 292.519989,862.964539 293.197723,861.685364 
	C293.469391,861.327271 293.741089,860.969177 294.706207,860.753174 
	C299.505157,856.202454 304.426422,851.772705 309.073914,847.072144 
	C315.763489,840.306274 322.152222,833.242310 328.862885,826.498108 
	C333.846741,821.489258 339.314636,816.958191 344.240997,811.897095 
	C348.868073,807.143494 352.898285,801.810730 357.501831,797.032104 
	C362.343231,792.006836 367.727722,787.503845 372.553802,782.465088 
	C377.528198,777.271484 381.945679,771.544739 386.913513,766.344238 
	C393.814423,759.120056 401.062775,752.228577 408.009430,745.046692 
	C409.277130,743.736084 409.813507,741.718079 410.927612,739.925232 
	C410.927612,739.925232 411.027679,739.684631 411.706848,739.781616 
	C413.351807,737.856506 414.996765,735.931396 416.895691,733.890442 
	C416.895691,733.890442 417.001648,733.632202 417.661469,733.759399 
	C423.296356,728.374939 429.058685,723.114929 434.501526,717.542908 
	C436.592346,715.402405 437.955078,712.550842 439.910004,709.895935 
	C439.910004,709.895935 440.029083,709.631592 440.701385,709.716980 
	C445.944763,704.685974 451.271271,699.738098 456.407410,694.599915 
	C461.204041,689.801453 465.694824,684.696472 470.510559,679.918213 
	C475.553162,674.914917 481.027008,670.336426 485.941833,665.216492 
	C492.466400,658.419739 498.430176,651.081421 505.008270,644.340088 
	C511.652832,637.530640 518.885071,631.297913 525.617004,624.569580 
	C532.341675,617.848450 538.761047,610.822021 545.323181,603.937988 
	C548.452759,600.654907 551.614502,597.402527 554.741516,594.117065 
	C560.096008,588.491150 565.531616,582.937561 570.729309,577.169861 
	C572.648071,575.040771 573.991028,572.392700 575.866089,569.861267 
	C575.866089,569.861267 575.987122,569.592224 576.652649,569.753357 
	C577.332520,569.336426 578.114624,569.026001 578.676636,568.486328 
	C585.988281,561.465271 593.521973,554.649414 600.454102,547.269470 
	C604.108643,543.378845 606.699829,538.489563 610.311523,533.749329 
	C610.557434,533.422913 610.803406,533.096436 611.718689,532.848450 
	C613.068176,531.233093 614.417725,529.617676 615.958496,527.959900 
	C615.958496,527.959900 616.000732,527.768555 616.696106,527.870239 
	C618.087097,525.925598 619.478088,523.980896 621.383057,521.787109 
	C621.599854,521.480652 621.816589,521.174133 622.810669,520.892029 
	C626.318848,518.766785 628.588745,520.183716 630.010071,523.544983 
	C634.812256,534.901794 639.524109,546.296875 644.337036,557.648987 
	C647.398193,564.869385 650.666626,572.002747 653.663879,579.248901 
	C655.025146,582.540100 655.726196,586.107483 657.125183,589.379211 
	C660.326355,596.866150 663.863220,604.209167 667.092712,611.684509 
	C669.971252,618.347656 672.461792,625.180359 675.406128,631.812744 
	C680.149963,642.498596 685.247864,653.027710 689.959900,663.726990 
	C692.936157,670.485107 695.286865,677.518982 698.267212,684.275208 
	C703.045227,695.106689 708.243164,705.753174 713.008240,716.590088 
	C715.813599,722.970032 718.118591,729.569580 720.670227,736.061951 
	C720.970398,736.825684 721.440857,737.520813 721.775696,738.272949 
	C726.879944,749.739197 732.032715,761.184387 737.048889,772.689026 
	C739.834717,779.078369 742.269104,785.621399 745.074524,792.001648 
	C749.668640,802.449402 754.541443,812.775024 759.099915,823.237976 
	C763.375488,833.051636 767.379333,842.983459 771.534241,852.849976 
	C774.469666,859.820618 777.368164,866.808838 780.440735,873.719177 
	C786.897400,888.240723 793.590149,902.658508 799.931458,917.229736 
	C804.554810,927.853516 808.865051,938.617065 813.142700,949.386719 
	C817.633240,960.692566 822.005005,972.047729 826.256958,983.445435 
	C828.366760,989.100830 830.644592,990.846008 836.856079,990.748535 
	C840.520813,990.691040 844.186707,990.663574 847.851746,990.684448 
	C851.542480,990.705444 855.522461,989.795654 857.448181,994.574524 
	C858.482483,997.141296 860.385193,999.353394 861.463074,1001.908203 
	C865.211243,1010.791504 868.523071,1019.868286 872.546387,1028.620605 
	C873.810486,1031.370483 876.792725,1033.330566 879.806885,1035.759277 
	C880.904419,1035.813110 882.001953,1035.866943 883.422485,1036.716187 
	C920.931580,1036.788330 958.440613,1036.865601 995.949646,1036.888794 
	C996.594666,1036.889160 997.240051,1036.235962 998.829468,1035.804199 
	C1003.578125,1035.826172 1008.326721,1035.848267 1013.178650,1036.478149 
	C1013.756897,1036.275513 1014.335144,1036.072876 1015.798889,1035.798706 
	C1017.575562,1035.821777 1019.352173,1035.844971 1021.433105,1036.629272 
	C1027.099121,1036.733521 1032.770630,1036.997803 1038.426514,1036.804810 
	C1039.540405,1036.766602 1040.594360,1034.964844 1041.776367,1033.240479 
	C1041.734009,1032.501221 1041.691650,1031.761963 1041.868408,1030.340942 
	C1040.925903,1028.612671 1039.983276,1026.884277 1038.835449,1024.573608 
	C1038.774170,1024.377197 1038.712891,1024.180664 1038.811401,1023.528687 
	C1038.656494,1023.172607 1038.390503,1023.041443 1037.823730,1022.552185 
	C1037.767700,1022.355530 1037.711792,1022.158936 1037.869141,1021.256226 
	C1036.264648,1018.222107 1034.660156,1015.187988 1032.831543,1011.577637 
	C1032.770020,1011.380920 1032.708496,1011.184143 1032.847046,1010.260742 
	C1030.879761,1006.185059 1028.912476,1002.109375 1026.814209,997.351013 
	C1026.752319,996.892517 1026.690552,996.433960 1026.802490,995.527222 
	C1026.644897,995.164795 1026.378662,995.046509 1025.803467,994.576599 
	C1025.742554,994.376221 1025.681519,994.175781 1025.834595,993.296021 
	C1024.520142,990.901794 1023.205627,988.507629 1021.783691,985.478210 
	C1021.475342,984.972656 1021.166992,984.467102 1020.913147,983.208496 
	C1019.277710,979.517212 1017.642273,975.825867 1016.012573,971.992920 
	C1016.012573,971.992920 1015.870972,971.985229 1015.924438,971.231567 
	C1015.575623,970.185242 1015.352295,969.074524 1014.854675,968.104553 
	C1013.308899,965.091736 1011.659058,962.132324 1009.841736,958.570862 
	C1009.784180,958.373291 1009.726685,958.175659 1009.882568,957.354065 
	C1009.268188,956.299011 1008.653870,955.244019 1007.819336,953.552429 
	C1007.761169,953.335571 1007.702942,953.118774 1007.874146,952.214111 
	C1006.582336,949.846985 1005.290527,947.479919 1003.831665,944.550537 
	C1003.778198,944.362427 1003.724731,944.174316 1003.876526,943.265625 
	C1003.537659,942.218445 1003.330750,941.103638 1002.835388,940.136597 
	C1001.287781,937.115112 999.631104,934.149475 998.010498,930.999207 
	C998.010498,930.999207 997.850769,930.966553 997.920715,930.216370 
	C997.577332,929.169434 997.364319,928.055359 996.866272,927.088074 
	C995.314331,924.074524 993.654541,921.116516 991.838135,917.440735 
	C991.767334,916.964050 991.696594,916.487366 991.795959,915.549683 
	C991.645691,915.183105 991.377747,915.045471 990.814941,914.562378 
	C990.758057,914.370361 990.701172,914.178284 990.850098,913.276855 
	C989.228516,910.201782 987.606995,907.126648 985.824524,903.515808 
	C985.773010,903.336670 985.721497,903.157471 985.878601,902.251892 
	C983.933105,898.213257 981.987610,894.174561 979.823792,889.575684 
	C979.765625,889.383850 979.707520,889.192078 979.823486,888.536255 
	C979.671875,888.174255 979.402527,888.026428 978.842712,887.532043 
	C978.789795,887.343750 978.736938,887.155518 978.897217,886.236023 
	C976.610596,881.210022 974.323914,876.184021 972.025024,870.993958 
	C972.025024,870.993958 971.864380,870.958679 971.939453,870.209534 
	C970.973572,868.517700 970.007690,866.825806 968.847534,864.406677 
	C968.124268,862.597107 967.400940,860.787476 966.893494,858.273010 
	C965.587769,855.884949 964.282043,853.496826 962.984680,851.018982 
	C962.984680,851.018982 962.894714,851.013916 962.943359,850.342285 
	C962.316589,849.268005 961.689758,848.193787 960.861633,846.551880 
	C960.803711,846.359680 960.745728,846.167419 960.895020,845.249695 
	C959.619019,842.869141 958.343018,840.488586 956.846802,837.400696 
	C956.455505,836.264343 956.064209,835.127991 955.887268,833.260986 
	C954.275574,830.204773 952.663879,827.148499 950.866516,823.545166 
	C950.814087,823.359863 950.761597,823.174561 950.892700,822.253235 
	C947.542542,813.911133 944.213684,805.560242 940.792114,797.247498 
	C940.576416,796.723511 939.638611,796.496765 938.821899,795.416931 
	C938.419922,794.269104 938.017944,793.121216 937.841125,791.266235 
	C935.512146,788.967529 937.819092,783.967712 932.859802,782.295654 
	C932.779602,781.468933 932.906921,780.550537 932.588318,779.829041 
	C926.932739,767.021606 921.190430,754.252441 915.535461,741.444702 
	C911.295776,731.842651 907.084412,722.226868 902.985596,712.564087 
	C898.174500,701.222107 893.609619,689.774963 888.734253,678.461182 
	C883.552917,666.437683 878.163391,654.503479 872.808655,642.555359 
	C867.377197,630.435730 861.747620,618.403198 856.446045,606.227539 
	C851.734741,595.407349 847.489563,584.384521 842.795349,573.556580 
	C835.804016,557.429932 828.517273,541.431519 821.511963,525.310852 
	C816.516357,513.815308 811.854675,502.174957 806.893005,490.664276 
	C804.018799,483.996399 800.697571,477.520599 797.846924,470.843353 
	C794.785950,463.673615 792.235596,456.283844 789.113525,449.142670 
	C783.993286,437.431183 778.589844,425.843567 773.308228,414.202637 
	C769.963745,406.831360 766.790771,399.376251 763.232971,392.109497 
	C759.868713,385.238007 760.461853,382.776215 766.035645,377.874939 
	C772.559937,372.137787 778.816650,366.071472 784.894775,359.859650 
	C789.608337,355.042297 793.696289,349.614807 798.380127,344.765533 
	C803.094238,339.884979 808.386963,335.562195 813.084351,330.666962 
	C817.991089,325.553528 822.245789,319.807404 827.222534,314.769562 
	C835.672791,306.215546 844.608276,298.141357 853.074951,289.602814 
	C861.565918,281.039764 869.635193,272.059967 878.063232,263.432770 
	C893.105835,248.034821 908.438782,232.917984 923.350098,217.395172 
	C936.505920,203.699722 949.116516,189.481522 962.224609,175.739014 
	C971.708496,165.796051 981.625061,156.266418 991.320923,146.524765 
	C993.985046,143.848129 996.546997,141.069931 999.159485,138.341843 
	C1005.753357,131.456436 1012.252197,124.476128 1018.987915,117.732323 
	C1022.059448,114.657112 1026.061279,112.433365 1028.804443,109.128792 
	C1031.840332,105.471542 1039.517578,105.144081 1037.321167,97.213478 
	C1035.810181,97.213478 1034.170898,97.149101 1032.538086,97.223633 
	C1018.999756,97.841530 1005.468323,98.694305 991.923523,99.057335 
	C980.270752,99.369652 968.601013,99.249504 956.943970,99.037552 
	C954.640198,98.995659 952.359802,97.665176 950.054810,96.162033 
	C950.069336,95.140907 950.083862,94.119781 950.558167,92.910271 
z"/>
<path fill="#E4DDB2" opacity="1.000000" stroke="none" 
	d="
M1009.669189,957.978027 
	C1009.726685,958.175659 1009.784180,958.373291 1009.873657,959.227539 
	C1011.894043,963.917847 1013.882507,967.951538 1015.870972,971.985229 
	C1015.870972,971.985229 1016.012573,971.992920 1015.924316,972.444580 
	C1017.510254,976.584656 1019.184509,980.273071 1020.858765,983.961548 
	C1021.166992,984.467102 1021.475342,984.972656 1021.584839,985.977417 
	C1022.797485,988.976196 1024.208984,991.475769 1025.620483,993.975403 
	C1025.681519,994.175781 1025.742554,994.376221 1025.895020,995.075623 
	C1026.098511,995.871521 1026.312622,996.005127 1026.628662,995.975464 
	C1026.690552,996.433960 1026.752319,996.892517 1026.646973,997.898926 
	C1028.535522,1002.627014 1030.591309,1006.807190 1032.647095,1010.987427 
	C1032.708496,1011.184143 1032.770020,1011.380920 1032.870117,1012.228821 
	C1034.491089,1015.907471 1036.073486,1018.934937 1037.655884,1021.962402 
	C1037.711792,1022.158936 1037.767700,1022.355530 1037.919189,1023.047241 
	C1038.125488,1023.835632 1038.337891,1023.982971 1038.651733,1023.984253 
	C1038.712891,1024.180664 1038.774170,1024.377197 1038.851074,1025.219971 
	C1039.794189,1027.585205 1040.721680,1029.303955 1041.649292,1031.022705 
	C1041.691650,1031.761963 1041.734009,1032.501221 1041.332397,1033.657715 
	C1037.476196,1034.339355 1034.060913,1034.570068 1030.652588,1034.877930 
	C1027.474121,1035.165161 1024.303101,1035.534790 1021.128845,1035.868164 
	C1019.352173,1035.844971 1017.575562,1035.821777 1015.259521,1035.587158 
	C1014.171936,1035.540527 1013.623657,1035.705444 1013.075378,1035.870361 
	C1008.326721,1035.848267 1003.578125,1035.826172 998.084717,1035.536133 
	C996.693970,1035.141235 996.048035,1034.903687 995.401917,1034.903198 
	C959.177063,1034.880249 922.952271,1034.866943 886.727478,1034.916138 
	C885.517639,1034.917847 884.308777,1035.571167 883.099487,1035.920776 
	C882.001953,1035.866943 880.904419,1035.813110 879.370972,1035.379395 
	C876.911194,1031.064697 874.698792,1027.213867 872.899170,1023.179138 
	C867.839844,1011.835632 862.950439,1000.416321 858.463257,989.020264 
	C859.598877,989.009521 860.265137,989.001709 860.931458,989.001709 
	C904.260132,988.998901 947.588867,989.003479 990.917542,988.985840 
	C996.222107,988.983704 996.839050,988.283081 995.112732,984.227783 
	C991.005371,974.579102 986.853760,964.948853 982.658569,955.338013 
	C969.539246,925.283142 956.356934,895.255737 943.264282,865.189209 
	C929.308350,833.140137 915.455383,801.046204 901.504822,768.994812 
	C887.486938,736.788818 873.376099,704.623291 859.357361,672.417725 
	C843.080200,635.023987 826.861816,597.604614 810.612244,560.198853 
	C798.674011,532.717651 786.743042,505.233185 774.778503,477.763428 
	C763.012573,450.750000 751.200928,423.756500 739.423401,396.748138 
	C731.371887,378.284424 723.354492,359.805878 715.296814,341.344879 
	C713.936401,338.228119 713.692932,335.718628 716.506165,332.849152 
	C732.708496,316.323364 748.640564,299.533203 764.750671,282.916412 
	C788.747375,258.165009 812.784241,233.452225 836.864075,208.781601 
	C856.877441,188.277252 876.977844,167.857742 897.037903,147.398972 
	C898.087708,146.328323 899.110046,145.230728 900.163330,144.163605 
	C915.721252,128.400085 931.282288,112.639610 947.245178,96.918137 
	C948.454773,96.948235 949.261719,96.938591 950.068665,96.928947 
	C952.359802,97.665176 954.640198,98.995659 956.943970,99.037552 
	C968.601013,99.249504 980.270752,99.369652 991.923523,99.057335 
	C1005.468323,98.694305 1018.999756,97.841530 1032.538086,97.223633 
	C1034.170898,97.149101 1035.810181,97.213478 1037.321167,97.213478 
	C1039.517578,105.144081 1031.840332,105.471542 1028.804443,109.128792 
	C1026.061279,112.433365 1022.059448,114.657112 1018.987915,117.732323 
	C1012.252197,124.476128 1005.753357,131.456436 999.159485,138.341843 
	C996.546997,141.069931 993.985046,143.848129 991.320923,146.524765 
	C981.625061,156.266418 971.708496,165.796051 962.224609,175.739014 
	C949.116516,189.481522 936.505920,203.699722 923.350098,217.395172 
	C908.438782,232.917984 893.105835,248.034821 878.063232,263.432770 
	C869.635193,272.059967 861.565918,281.039764 853.074951,289.602814 
	C844.608276,298.141357 835.672791,306.215546 827.222534,314.769562 
	C822.245789,319.807404 817.991089,325.553528 813.084351,330.666962 
	C808.386963,335.562195 803.094238,339.884979 798.380127,344.765533 
	C793.696289,349.614807 789.608337,355.042297 784.894775,359.859650 
	C778.816650,366.071472 772.559937,372.137787 766.035645,377.874939 
	C760.461853,382.776215 759.868713,385.238007 763.232971,392.109497 
	C766.790771,399.376251 769.963745,406.831360 773.308228,414.202637 
	C778.589844,425.843567 783.993286,437.431183 789.113525,449.142670 
	C792.235596,456.283844 794.785950,463.673615 797.846924,470.843353 
	C800.697571,477.520599 804.018799,483.996399 806.893005,490.664276 
	C811.854675,502.174957 816.516357,513.815308 821.511963,525.310852 
	C828.517273,541.431519 835.804016,557.429932 842.795349,573.556580 
	C847.489563,584.384521 851.734741,595.407349 856.446045,606.227539 
	C861.747620,618.403198 867.377197,630.435730 872.808655,642.555359 
	C878.163391,654.503479 883.552917,666.437683 888.734253,678.461182 
	C893.609619,689.774963 898.174500,701.222107 902.985596,712.564087 
	C907.084412,722.226868 911.295776,731.842651 915.535461,741.444702 
	C921.190430,754.252441 926.932739,767.021606 932.588318,779.829041 
	C932.906921,780.550537 932.779602,781.468933 932.917419,783.049805 
	C934.522034,786.527039 936.069031,789.250183 937.615967,791.973389 
	C938.017944,793.121216 938.419922,794.269104 938.858521,796.145020 
	C941.397217,802.940430 943.810120,809.046753 946.441589,815.057373 
	C947.641785,817.798706 949.273315,820.351196 950.709167,822.989319 
	C950.761597,823.174561 950.814087,823.359863 950.898926,824.189819 
	C952.511841,827.886902 954.092346,830.939270 955.672913,833.991638 
	C956.064209,835.127991 956.455505,836.264343 956.900208,838.115784 
	C958.198303,841.212341 959.442993,843.593811 960.687744,845.975220 
	C960.745728,846.167419 960.803711,846.359680 960.883545,847.189148 
	C961.568542,848.888916 962.231628,849.951416 962.894714,851.013916 
	C962.894714,851.013916 962.984680,851.018982 962.920593,851.432861 
	C964.130188,854.223816 965.403931,856.600830 966.677612,858.977844 
	C967.400940,860.787476 968.124268,862.597107 968.872742,865.129517 
	C969.886780,867.554443 970.875549,869.256592 971.864380,870.958679 
	C971.864380,870.958679 972.025024,870.993958 971.943665,871.455322 
	C974.136230,876.933533 976.410095,881.950439 978.684021,886.967285 
	C978.736938,887.155518 978.789795,887.343750 978.931519,888.021118 
	C979.120667,888.813721 979.330383,888.977051 979.649414,889.000305 
	C979.707520,889.192078 979.765625,889.383850 979.861755,890.223694 
	C981.823181,894.907227 983.746582,898.942749 985.669983,902.978271 
	C985.721497,903.157471 985.773010,903.336670 985.844421,904.167908 
	C987.457642,907.875366 989.050964,910.930786 990.644287,913.986145 
	C990.701172,914.178284 990.758057,914.370361 990.898865,915.057861 
	C991.088013,915.859131 991.302368,916.011597 991.625793,916.010681 
	C991.696594,916.487366 991.767334,916.964050 991.865112,918.156494 
	C993.878296,922.903687 995.864502,926.935120 997.850769,930.966553 
	C997.850769,930.966553 998.010498,930.999207 997.931152,931.454468 
	C999.791687,935.935303 1001.731506,939.960754 1003.671265,943.986267 
	C1003.724731,944.174316 1003.778198,944.362427 1003.846375,945.193542 
	C1005.122314,948.191650 1006.383545,950.546814 1007.644775,952.901917 
	C1007.702942,953.118774 1007.761169,953.335571 1007.836731,954.201538 
	C1008.459106,955.893066 1009.064148,956.935547 1009.669189,957.978027 
z"/>
<path fill="#E6DEB4" opacity="1.000000" stroke="none" 
	d="
M294.012756,860.611084 
	C293.741089,860.969177 293.469391,861.327271 292.575378,861.798523 
	C283.050720,870.774658 274.126556,879.615967 265.286926,888.540955 
	C264.564514,889.270386 264.418427,890.570557 264.004517,891.605530 
	C264.004517,891.605530 263.877686,891.876892 263.419617,891.887939 
	C261.318695,893.814758 259.675812,895.730591 258.032928,897.646362 
	C258.032928,897.646362 257.911407,897.906616 257.456268,897.925659 
	C252.699600,902.089111 248.640274,906.529236 244.034363,910.302124 
	C238.463974,914.864990 236.914444,920.488098 236.963654,927.425293 
	C237.190460,959.395203 237.155396,991.367737 237.077255,1023.338928 
	C237.045288,1036.416382 238.802719,1034.674927 225.764740,1034.895752 
	C223.540344,1034.933472 221.325363,1035.527100 219.106049,1035.864014 
	C192.015656,1035.842407 164.925278,1035.820923 137.101196,1035.535400 
	C123.061546,1035.135376 109.755775,1034.975342 96.449562,1034.872803 
	C88.637199,1034.812622 88.345444,1034.447388 88.152527,1026.746338 
	C88.021828,1021.529114 87.499130,1016.321594 87.151749,1011.109741 
	C87.181740,1010.635864 87.211723,1010.162048 87.649902,1009.239502 
	C87.820610,1005.529358 87.583138,1002.267883 87.345657,999.006409 
	C87.298317,997.903259 87.250977,996.800049 87.459854,995.052124 
	C87.799156,992.611206 87.882256,990.815125 88.437782,989.015381 
	C121.073486,989.007874 153.236771,989.008118 185.400040,988.996765 
	C191.995255,988.994446 192.025787,988.963318 192.027130,982.253479 
	C192.034241,946.757263 191.989914,911.260986 192.119385,875.765198 
	C192.128357,873.305115 192.794006,870.395996 194.216049,868.486328 
	C197.180237,864.505493 200.782440,860.983398 204.250793,857.396851 
	C225.320404,835.609436 246.429779,813.860474 267.518768,792.091858 
	C287.796204,771.161011 308.061005,750.217896 328.338531,729.287231 
	C349.195801,707.758118 370.054962,686.230835 390.925964,664.715027 
	C413.073059,641.883728 435.208984,619.041565 457.398804,596.251892 
	C474.945587,578.230774 492.582825,560.297791 510.142487,542.289185 
	C514.323608,538.001221 518.295898,533.509888 522.465393,529.210144 
	C546.000671,504.939545 569.551147,480.683655 593.139404,456.464539 
	C596.630737,452.879822 597.793213,453.044708 599.869446,457.786743 
	C608.345642,477.146057 616.670959,496.571442 624.877380,516.253418 
	C623.813049,517.978821 622.923218,519.423218 622.033386,520.867676 
	C621.816589,521.174133 621.599854,521.480652 620.785156,521.894714 
	C618.791748,523.924438 617.396240,525.846497 616.000732,527.768555 
	C616.000732,527.768555 615.958496,527.959900 615.532593,527.942017 
	C613.754211,529.539429 612.401733,531.154724 611.049316,532.770020 
	C610.803406,533.096436 610.557434,533.422913 609.712036,533.877930 
	C608.558655,534.356873 607.908264,534.613708 607.465088,535.071289 
	C597.446167,545.415222 587.427490,555.759827 577.491577,566.183228 
	C576.685303,567.028992 576.474609,568.442505 575.987122,569.592224 
	C575.987122,569.592224 575.866089,569.861267 575.404541,569.877808 
	C573.801819,570.841248 572.560913,571.691406 571.534180,572.749512 
	C551.031311,593.877869 530.595398,615.071289 510.057953,636.166016 
	C489.862885,656.908997 469.526154,677.514343 449.362549,698.287659 
	C445.963501,701.789551 443.126038,705.836487 440.029114,709.631592 
	C440.029083,709.631592 439.910004,709.895935 439.454010,709.916870 
	C431.923462,716.925720 424.825409,723.890259 417.817413,730.944336 
	C417.234406,731.531250 417.259247,732.721985 417.001648,733.632202 
	C417.001648,733.632202 416.895691,733.890442 416.444885,733.903381 
	C414.338593,735.839050 412.683136,737.761841 411.027649,739.684631 
	C411.027679,739.684631 410.927612,739.925232 410.480835,739.943298 
	C408.658508,741.140137 407.177368,742.216797 405.923218,743.513062 
	C388.831146,761.179504 371.819885,778.924316 354.688751,796.552673 
	C335.699615,816.093079 316.585846,835.512451 297.603729,855.059631 
	C296.097961,856.610291 295.195557,858.746826 294.012756,860.611084 
z"/>
<path fill="#EAE1B5" opacity="1.000000" stroke="none" 
	d="
M207.005722,98.279968 
	C215.029648,98.244957 223.053574,98.209938 231.640625,98.554222 
	C236.586700,100.034088 237.164474,103.052917 237.158096,107.145218 
	C237.043701,180.430496 237.075638,253.715988 237.079666,327.001434 
	C237.085205,427.601837 237.093689,528.202209 236.803909,628.995850 
	C222.253922,643.583435 208.000916,657.977722 193.747925,672.372009 
	C193.179749,672.060791 192.611588,671.749512 192.043411,671.438293 
	C192.043411,480.553589 192.043411,289.668915 192.470551,98.812859 
	C194.692291,99.123718 196.509048,99.733589 198.276550,99.614250 
	C201.202972,99.416656 204.097656,98.749359 207.005722,98.279968 
z"/>
<path fill="#B9A86A" opacity="1.000000" stroke="none" 
	d="
M237.100906,628.802612 
	C237.093689,528.202209 237.085205,427.601837 237.079666,327.001434 
	C237.075638,253.715988 237.043701,180.430496 237.158096,107.145218 
	C237.164474,103.052917 236.586700,100.034088 232.107819,98.601440 
	C238.111816,97.826927 238.940704,98.719742 238.941101,105.866585 
	C238.944885,172.525589 238.943527,239.184601 238.943390,305.843597 
	C238.943222,381.834869 238.943604,457.826111 238.942032,533.817383 
	C238.941437,562.510925 238.935944,591.204468 238.932739,619.898010 
	C238.932526,621.864502 238.932724,623.831055 238.932724,625.593933 
	C244.850967,627.680237 246.628845,622.630798 249.199280,620.096008 
	C255.984238,613.405029 261.954376,605.896362 268.585907,599.039124 
	C277.670105,589.645813 287.081055,580.569031 296.319885,571.324463 
	C300.213593,567.428223 304.054138,563.477661 307.867340,559.502441 
	C312.675934,554.489563 317.372986,549.368713 322.225922,544.399597 
	C327.799255,538.692932 333.492523,533.103455 339.130157,527.459534 
	C344.650787,521.932800 350.294983,516.522339 355.653015,510.842102 
	C362.532318,503.549133 368.950500,495.810425 375.998566,488.690704 
	C381.895050,482.734344 388.673553,477.652374 394.584961,471.709229 
	C401.506195,464.750854 407.818115,457.190826 414.572723,450.060791 
	C419.115021,445.266052 424.122833,440.911194 428.645599,436.099365 
	C436.410950,427.837677 443.864502,419.282227 451.660461,411.050446 
	C453.877289,408.709717 457.108612,407.342407 459.387146,405.045135 
	C466.459259,397.914856 473.248138,390.504700 480.242126,383.295502 
	C485.271698,378.111115 490.538147,373.155762 495.542542,367.947998 
	C500.132111,363.171967 504.461578,358.146973 509.003510,353.323822 
	C511.732941,350.425446 514.691833,347.744537 517.473145,344.893280 
	C522.336792,339.907471 527.098999,334.822205 531.989685,329.863403 
	C534.978943,326.832458 538.139160,323.970520 541.203003,321.012451 
	C543.411621,318.880096 545.584961,316.711273 547.779663,314.564423 
	C550.141724,312.253784 552.530823,309.970337 554.872070,307.638824 
	C560.425049,302.108978 566.074463,296.669281 571.460205,290.980408 
	C575.880737,286.311127 579.822327,281.187439 584.258423,276.534241 
	C589.334045,271.210266 594.757751,266.219635 599.954773,261.008972 
	C601.851257,259.107574 603.441223,256.901764 605.325562,254.986801 
	C613.190674,246.993774 621.084290,239.028305 629.024353,231.109756 
	C638.828552,221.332108 648.821594,211.739960 658.483154,201.824173 
	C666.039185,194.069321 673.201721,185.931610 680.568604,177.991440 
	C682.215149,176.216736 684.031921,174.600601 685.691284,172.837082 
	C695.647339,162.256149 705.460083,151.536774 715.582092,141.117554 
	C719.456482,137.129364 724.328857,134.111389 728.208618,130.127518 
	C737.808228,120.270195 747.124084,110.135437 756.502686,100.064323 
	C764.161865,91.839638 771.657166,83.460320 779.411438,75.327240 
	C782.281677,72.316795 785.747803,69.882858 788.818115,67.051506 
	C790.620667,65.389252 792.122986,63.406200 793.860229,61.667263 
	C796.659424,58.865467 799.459106,56.052029 802.441040,53.452885 
	C803.269104,52.731121 804.730652,52.518543 805.919067,52.465549 
	C811.020264,52.238068 816.127869,52.043568 821.233276,52.040581 
	C869.561035,52.012276 917.888855,52.045895 966.216553,51.996582 
	C971.207397,51.991489 976.197754,51.563747 981.957825,51.149475 
	C984.716248,51.413807 987.889587,49.726818 987.627441,53.885239 
	C987.087585,54.073925 986.770630,54.099018 986.053650,53.915878 
	C982.202026,53.831203 978.742981,53.887798 975.283997,53.888802 
	C921.292542,53.904472 867.301025,53.881668 813.309814,54.011410 
	C810.478333,54.018215 806.979065,54.483624 804.940125,56.145676 
	C797.485535,62.222256 790.170349,68.556557 783.452576,75.429092 
	C774.514709,84.572929 766.427734,94.546082 757.536743,103.738914 
	C744.365601,117.357307 730.626831,130.426865 717.460510,144.049820 
	C698.271362,163.904587 679.471558,184.135208 660.318176,204.025024 
	C649.728882,215.021500 638.797058,225.690094 627.938232,236.424103 
	C623.685791,240.627625 619.015686,244.419067 614.883667,248.731537 
	C609.139893,254.726288 603.930054,261.236511 598.130127,267.172882 
	C576.248413,289.569397 554.203613,311.806549 532.252869,334.135742 
	C516.612000,350.046295 501.051300,366.035675 485.387726,381.923706 
	C482.475952,384.877197 479.058136,387.337311 476.195038,390.332153 
	C465.968231,401.029480 455.970428,411.946136 445.716156,422.616608 
	C432.680450,436.181396 419.564697,449.672028 406.315765,463.028259 
	C398.935211,470.468628 391.026855,477.387970 383.699432,484.877716 
	C376.380127,492.359222 369.667847,500.433350 362.374298,507.941528 
	C344.296631,526.551147 326.072418,545.018982 307.841827,563.479370 
	C295.925323,575.546021 283.782959,587.391235 271.956543,599.544678 
	C264.660828,607.042175 257.691437,614.863525 250.726730,622.674316 
	C247.035156,626.814331 243.256454,630.336853 237.100906,628.802612 
z"/>
<path fill="#B9A86A" opacity="1.000000" stroke="none" 
	d="
M206.569031,98.160538 
	C204.097656,98.749359 201.202972,99.416656 198.276550,99.614250 
	C196.509048,99.733589 194.692291,99.123718 192.291977,98.484642 
	C191.452042,97.334564 191.035355,96.546883 191.011063,95.747284 
	C190.672745,84.610832 190.316635,73.474045 190.114532,62.334618 
	C189.969925,54.363319 189.645050,53.910084 181.520218,53.907948 
	C139.693192,53.896935 97.866150,53.910019 56.039120,53.902397 
	C42.900681,53.900002 42.897308,53.882515 42.897724,66.846718 
	C42.905178,297.811951 42.916874,528.777222 42.919727,759.742432 
	C42.920643,833.731323 42.950333,907.720276 42.774609,981.708801 
	C42.762466,986.821899 44.189522,988.284302 49.235863,988.107849 
	C60.221363,987.723633 71.228905,987.906799 82.226440,987.989136 
	C84.141876,988.003540 86.052505,988.659424 87.965347,989.018982 
	C87.882256,990.815125 87.799156,992.611206 87.419586,994.639526 
	C86.582275,993.621399 86.041428,992.371094 85.754036,991.706726 
	C72.432640,991.706726 59.351559,991.443787 46.290569,991.841187 
	C41.330399,991.992126 39.922096,990.392334 40.026478,985.722046 
	C40.479527,965.452148 40.973301,945.177551 40.987976,924.904358 
	C41.078823,799.408325 41.048870,673.912354 41.049973,548.416321 
	C41.051167,412.249329 41.088779,276.082275 40.995045,139.915344 
	C40.978333,115.641396 40.366009,91.368156 40.124977,67.093636 
	C40.097553,64.331551 40.559479,61.539608 41.033024,58.802776 
	C42.004868,53.186024 46.121674,50.329838 51.600422,51.224937 
	C53.686562,51.565765 55.796467,51.983921 57.896034,51.986671 
	C94.394836,52.034447 130.893723,52.022453 167.392578,52.024921 
	C174.430618,52.025398 181.469315,52.089478 188.506363,52.008316 
	C191.480209,51.974022 192.007767,53.454723 191.975784,56.084515 
	C191.850128,66.416016 192.014374,76.750984 191.893890,87.082611 
	C191.789398,96.041946 193.266068,98.187805 202.634399,98.005112 
	C203.799698,97.982384 204.966324,98.027458 206.569031,98.160538 
z"/>
<path fill="#B9A86A" opacity="1.000000" stroke="none" 
	d="
M622.421997,520.879883 
	C622.923218,519.423218 623.813049,517.978821 625.253540,516.266418 
	C627.746033,517.520203 630.548706,518.638611 631.483032,520.632507 
	C635.877197,530.010315 639.824280,539.601135 643.806396,549.167725 
	C648.768250,561.087891 653.445007,573.128967 658.549072,584.986877 
	C663.176819,595.738037 668.359192,606.249756 673.030090,616.983215 
	C678.324402,629.149292 683.236084,641.481323 688.469238,653.674622 
	C695.333801,669.669067 702.334717,685.605164 709.306152,701.553589 
	C714.681335,713.850220 720.091614,726.131592 725.504578,738.411621 
	C730.454895,749.642029 735.586243,760.795715 740.349915,772.104553 
	C745.118591,783.425110 749.272888,795.007568 754.154297,806.276978 
	C763.446228,827.728882 773.158081,848.998535 782.520142,870.420593 
	C791.618225,891.238464 800.606201,912.106079 809.433960,933.039795 
	C815.756592,948.033020 821.807007,963.142700 827.841858,978.255188 
	C831.714233,987.952515 831.604187,987.886780 842.241760,988.038513 
	C847.496155,988.113464 852.743469,988.681824 857.994019,989.026855 
	C862.950439,1000.416321 867.839844,1011.835632 872.899170,1023.179138 
	C874.698792,1027.213867 876.911194,1031.064697 878.961914,1035.325684 
	C876.792725,1033.330566 873.810486,1031.370483 872.546387,1028.620605 
	C868.523071,1019.868286 865.211243,1010.791504 861.463074,1001.908203 
	C860.385193,999.353394 858.482483,997.141296 857.448181,994.574524 
	C855.522461,989.795654 851.542480,990.705444 847.851746,990.684448 
	C844.186707,990.663574 840.520813,990.691040 836.856079,990.748535 
	C830.644592,990.846008 828.366760,989.100830 826.256958,983.445435 
	C822.005005,972.047729 817.633240,960.692566 813.142700,949.386719 
	C808.865051,938.617065 804.554810,927.853516 799.931458,917.229736 
	C793.590149,902.658508 786.897400,888.240723 780.440735,873.719177 
	C777.368164,866.808838 774.469666,859.820618 771.534241,852.849976 
	C767.379333,842.983459 763.375488,833.051636 759.099915,823.237976 
	C754.541443,812.775024 749.668640,802.449402 745.074524,792.001648 
	C742.269104,785.621399 739.834717,779.078369 737.048889,772.689026 
	C732.032715,761.184387 726.879944,749.739197 721.775696,738.272949 
	C721.440857,737.520813 720.970398,736.825684 720.670227,736.061951 
	C718.118591,729.569580 715.813599,722.970032 713.008240,716.590088 
	C708.243164,705.753174 703.045227,695.106689 698.267212,684.275208 
	C695.286865,677.518982 692.936157,670.485107 689.959900,663.726990 
	C685.247864,653.027710 680.149963,642.498596 675.406128,631.812744 
	C672.461792,625.180359 669.971252,618.347656 667.092712,611.684509 
	C663.863220,604.209167 660.326355,596.866150 657.125183,589.379211 
	C655.726196,586.107483 655.025146,582.540100 653.663879,579.248901 
	C650.666626,572.002747 647.398193,564.869385 644.337036,557.648987 
	C639.524109,546.296875 634.812256,534.901794 630.010071,523.544983 
	C628.588745,520.183716 626.318848,518.766785 622.421997,520.879883 
z"/>
<path fill="#B9A86A" opacity="1.000000" stroke="none" 
	d="
M440.365234,709.674316 
	C443.126038,705.836487 445.963501,701.789551 449.362549,698.287659 
	C469.526154,677.514343 489.862885,656.908997 510.057953,636.166016 
	C530.595398,615.071289 551.031311,593.877869 571.534180,572.749512 
	C572.560913,571.691406 573.801819,570.841248 575.269775,569.937805 
	C573.991028,572.392700 572.648071,575.040771 570.729309,577.169861 
	C565.531616,582.937561 560.096008,588.491150 554.741516,594.117065 
	C551.614502,597.402527 548.452759,600.654907 545.323181,603.937988 
	C538.761047,610.822021 532.341675,617.848450 525.617004,624.569580 
	C518.885071,631.297913 511.652832,637.530640 505.008270,644.340088 
	C498.430176,651.081421 492.466400,658.419739 485.941833,665.216492 
	C481.027008,670.336426 475.553162,674.914917 470.510559,679.918213 
	C465.694824,684.696472 461.204041,689.801453 456.407410,694.599915 
	C451.271271,699.738098 445.944763,704.685974 440.365234,709.674316 
z"/>
<path fill="#B9A86A" opacity="1.000000" stroke="none" 
	d="
M294.359497,860.682129 
	C295.195557,858.746826 296.097961,856.610291 297.603729,855.059631 
	C316.585846,835.512451 335.699615,816.093079 354.688751,796.552673 
	C371.819885,778.924316 388.831146,761.179504 405.923218,743.513062 
	C407.177368,742.216797 408.658508,741.140137 410.360779,739.994019 
	C409.813507,741.718079 409.277130,743.736084 408.009430,745.046692 
	C401.062775,752.228577 393.814423,759.120056 386.913513,766.344238 
	C381.945679,771.544739 377.528198,777.271484 372.553802,782.465088 
	C367.727722,787.503845 362.343231,792.006836 357.501831,797.032104 
	C352.898285,801.810730 348.868073,807.143494 344.240997,811.897095 
	C339.314636,816.958191 333.846741,821.489258 328.862885,826.498108 
	C322.152222,833.242310 315.763489,840.306274 309.073914,847.072144 
	C304.426422,851.772705 299.505157,856.202454 294.359497,860.682129 
z"/>
<path fill="#B9A86A" opacity="1.000000" stroke="none" 
	d="
M219.266418,1036.258057 
	C221.325363,1035.527100 223.540344,1034.933472 225.764740,1034.895752 
	C238.802719,1034.674927 237.045288,1036.416382 237.077255,1023.338928 
	C237.155396,991.367737 237.190460,959.395203 236.963654,927.425293 
	C236.914444,920.488098 238.463974,914.864990 244.034363,910.302124 
	C248.640274,906.529236 252.699600,902.089111 257.326263,897.986694 
	C256.720276,899.776672 256.117279,901.839722 254.797348,903.214355 
	C250.612488,907.572632 245.920517,911.462097 241.926041,915.976501 
	C240.276245,917.841064 239.081604,920.829041 239.068924,923.313110 
	C238.886581,959.064697 238.895004,994.817566 238.995758,1030.569824 
	C239.008865,1035.219238 238.286118,1037.623657 232.637100,1036.581055 
	C228.382919,1035.796021 223.840744,1036.571411 219.266418,1036.258057 
z"/>
<path fill="#B9A86A" opacity="1.000000" stroke="none" 
	d="
M883.260986,1036.318481 
	C884.308777,1035.571167 885.517639,1034.917847 886.727478,1034.916138 
	C922.952271,1034.866943 959.177063,1034.880249 995.401917,1034.903198 
	C996.048035,1034.903687 996.693970,1035.141235 997.612610,1035.577881 
	C997.240051,1036.235962 996.594666,1036.889160 995.949646,1036.888794 
	C958.440613,1036.865601 920.931580,1036.788330 883.260986,1036.318481 
z"/>
<path fill="#B9A86A" opacity="1.000000" stroke="none" 
	d="
M86.753090,1011.269958 
	C87.499130,1016.321594 88.021828,1021.529114 88.152527,1026.746338 
	C88.345444,1034.447388 88.637199,1034.812622 96.449562,1034.872803 
	C109.755775,1034.975342 123.061546,1035.135376 136.628906,1035.595215 
	C135.752625,1036.265381 134.616486,1036.906494 133.476959,1036.912598 
	C120.696457,1036.980469 107.910950,1037.154785 95.136101,1036.874878 
	C86.732483,1036.690796 86.037643,1035.402832 86.112915,1027.838501 
	C86.167351,1022.368835 86.272118,1016.899597 86.753090,1011.269958 
z"/>
<path fill="#B9A86A" opacity="1.000000" stroke="none" 
	d="
M576.319885,569.672791 
	C576.474609,568.442505 576.685303,567.028992 577.491577,566.183228 
	C587.427490,555.759827 597.446167,545.415222 607.465088,535.071289 
	C607.908264,534.613708 608.558655,534.356873 609.441833,534.028870 
	C606.699829,538.489563 604.108643,543.378845 600.454102,547.269470 
	C593.521973,554.649414 585.988281,561.465271 578.676636,568.486328 
	C578.114624,569.026001 577.332520,569.336426 576.319885,569.672791 
z"/>
<path fill="#B9A86A" opacity="1.000000" stroke="none" 
	d="
M264.333710,891.686035 
	C264.418427,890.570557 264.564514,889.270386 265.286926,888.540955 
	C274.126556,879.615967 283.050720,870.774658 292.277344,861.963135 
	C292.519989,862.964539 292.816681,864.297485 292.300354,864.807617 
	C283.146729,873.853455 273.894135,882.799255 264.333710,891.686035 
z"/>
<path fill="#B9A86A" opacity="1.000000" stroke="none" 
	d="
M417.331543,733.695801 
	C417.259247,732.721985 417.234406,731.531250 417.817413,730.944336 
	C424.825409,723.890259 431.923462,716.925720 439.323792,709.980530 
	C437.955078,712.550842 436.592346,715.402405 434.501526,717.542908 
	C429.058685,723.114929 423.296356,728.374939 417.331543,733.695801 
z"/>
<path fill="#B9A86A" opacity="1.000000" stroke="none" 
	d="
M950.800903,822.621277 
	C949.273315,820.351196 947.641785,817.798706 946.441589,815.057373 
	C943.810120,809.046753 941.397217,802.940430 938.965942,796.502441 
	C939.638611,796.496765 940.576416,796.723511 940.792114,797.247498 
	C944.213684,805.560242 947.542542,813.911133 950.800903,822.621277 
z"/>
<path fill="#B9A86A" opacity="1.000000" stroke="none" 
	d="
M1021.281006,1036.248779 
	C1024.303101,1035.534790 1027.474121,1035.165161 1030.652588,1034.877930 
	C1034.060913,1034.570068 1037.476196,1034.339355 1041.282227,1034.025635 
	C1040.594360,1034.964844 1039.540405,1036.766602 1038.426514,1036.804810 
	C1032.770630,1036.997803 1027.099121,1036.733521 1021.281006,1036.248779 
z"/>
<path fill="#5B6C5F" opacity="1.000000" stroke="none" 
	d="
M986.446289,54.031277 
	C986.770630,54.099018 987.087585,54.073925 987.968506,53.989029 
	C989.063477,54.966892 989.587097,55.911739 990.110718,56.856579 
	C987.323730,58.888000 984.536804,60.919434 981.123596,62.734528 
	C980.315796,62.342995 980.134277,62.167801 980.119568,61.715366 
	C982.339722,58.969177 984.393005,56.500221 986.446289,54.031277 
z"/>
<path fill="#8F8B5D" opacity="1.000000" stroke="none" 
	d="
M990.432129,56.756367 
	C989.587097,55.911739 989.063477,54.966892 988.198853,53.918255 
	C987.889587,49.726818 984.716248,51.413807 982.309448,50.952515 
	C985.958191,49.625950 990.080444,47.784981 993.578552,52.115864 
	C992.616333,53.662312 991.684937,55.159229 990.432129,56.756367 
z"/>
<path fill="#B9A86A" opacity="1.000000" stroke="none" 
	d="
M978.790649,886.601685 
	C976.410095,881.950439 974.136230,876.933533 971.949829,871.537354 
	C974.323914,876.184021 976.610596,881.210022 978.790649,886.601685 
z"/>
<path fill="#B9A86A" opacity="1.000000" stroke="none" 
	d="
M1032.747070,1010.624084 
	C1030.591309,1006.807190 1028.535522,1002.627014 1026.712402,998.240234 
	C1028.912476,1002.109375 1030.879761,1006.185059 1032.747070,1010.624084 
z"/>
<path fill="#B9A86A" opacity="1.000000" stroke="none" 
	d="
M1003.773926,943.625977 
	C1001.731506,939.960754 999.791687,935.935303 997.934326,931.536011 
	C999.631104,934.149475 1001.287781,937.115112 1002.835388,940.136597 
	C1003.330750,941.103638 1003.537659,942.218445 1003.773926,943.625977 
z"/>
<path fill="#B9A86A" opacity="1.000000" stroke="none" 
	d="
M997.885742,930.591431 
	C995.864502,926.935120 993.878296,922.903687 991.964355,918.504639 
	C993.654541,921.116516 995.314331,924.074524 996.866272,927.088074 
	C997.364319,928.055359 997.577332,929.169434 997.885742,930.591431 
z"/>
<path fill="#B9A86A" opacity="1.000000" stroke="none" 
	d="
M1015.897705,971.608398 
	C1013.882507,967.951538 1011.894043,963.917847 1009.977600,959.518188 
	C1011.659058,962.132324 1013.308899,965.091736 1014.854675,968.104553 
	C1015.352295,969.074524 1015.575623,970.185242 1015.897705,971.608398 
z"/>
<path fill="#B9A86A" opacity="1.000000" stroke="none" 
	d="
M985.774292,902.615112 
	C983.746582,898.942749 981.823181,894.907227 979.970886,890.503784 
	C981.987610,894.174561 983.933105,898.213257 985.774292,902.615112 
z"/>
<path fill="#B9A86A" opacity="1.000000" stroke="none" 
	d="
M955.780090,833.626343 
	C954.092346,830.939270 952.511841,827.886902 950.991699,824.463379 
	C952.663879,827.148499 954.275574,830.204773 955.780090,833.626343 
z"/>
<path fill="#B9A86A" opacity="1.000000" stroke="none" 
	d="
M990.747192,913.631470 
	C989.050964,910.930786 987.457642,907.875366 985.924866,904.435791 
	C987.606995,907.126648 989.228516,910.201782 990.747192,913.631470 
z"/>
<path fill="#5B6C5F" opacity="1.000000" stroke="none" 
	d="
M980.769470,62.781128 
	C979.621948,64.965576 978.202332,66.887093 976.046509,68.919586 
	C974.443359,69.012009 973.576538,68.993462 972.908142,68.682884 
	C975.388672,66.258110 977.670715,64.125359 979.952698,61.992611 
	C980.134277,62.167801 980.315796,62.342995 980.769470,62.781128 
z"/>
<path fill="#B9A86A" opacity="1.000000" stroke="none" 
	d="
M1020.885986,983.585022 
	C1019.184509,980.273071 1017.510254,976.584656 1015.921448,972.515381 
	C1017.642273,975.825867 1019.277710,979.517212 1020.885986,983.585022 
z"/>
<path fill="#B9A86A" opacity="1.000000" stroke="none" 
	d="
M87.218765,999.442444 
	C87.583138,1002.267883 87.820610,1005.529358 87.701393,1008.886963 
	C87.260429,1005.948242 87.176155,1002.913391 87.218765,999.442444 
z"/>
<path fill="#B9A86A" opacity="1.000000" stroke="none" 
	d="
M937.728516,791.619812 
	C936.069031,789.250183 934.522034,786.527039 933.022888,783.441284 
	C937.819092,783.967712 935.512146,788.967529 937.728516,791.619812 
z"/>
<path fill="#81825E" opacity="1.000000" stroke="none" 
	d="
M972.709656,68.974907 
	C973.576538,68.993462 974.443359,69.012009 975.743164,69.047150 
	C974.040710,71.044678 971.905396,73.025604 969.164673,74.833786 
	C968.390625,74.529854 968.221924,74.398674 968.200684,73.977966 
	C969.801941,72.117256 971.255798,70.546074 972.709656,68.974907 
z"/>
<path fill="#B9A86A" opacity="1.000000" stroke="none" 
	d="
M1037.762451,1021.609314 
	C1036.073486,1018.934937 1034.491089,1015.907471 1032.982178,1012.516968 
	C1034.660156,1015.187988 1036.264648,1018.222107 1037.762451,1021.609314 
z"/>
<path fill="#B9A86A" opacity="1.000000" stroke="none" 
	d="
M616.348389,527.819397 
	C617.396240,525.846497 618.791748,523.924438 620.528137,522.019287 
	C619.478088,523.980896 618.087097,525.925598 616.348389,527.819397 
z"/>
<path fill="#B9A86A" opacity="1.000000" stroke="none" 
	d="
M411.367249,739.733154 
	C412.683136,737.761841 414.338593,735.839050 416.317871,733.961304 
	C414.996765,735.931396 413.351807,737.856506 411.367249,739.733154 
z"/>
<path fill="#B9A86A" opacity="1.000000" stroke="none" 
	d="
M966.785583,858.625427 
	C965.403931,856.600830 964.130188,854.223816 962.916382,851.477722 
	C964.282043,853.496826 965.587769,855.884949 966.785583,858.625427 
z"/>
<path fill="#81825E" opacity="1.000000" stroke="none" 
	d="
M968.041443,76.043304 
	C966.579895,77.659401 965.118408,79.275505 963.080566,80.744827 
	C962.350098,80.473602 962.195984,80.349152 962.211304,79.932663 
	C963.996338,78.106430 965.612000,76.572250 967.430481,75.289871 
	C967.769287,75.708885 967.905334,75.876099 968.041443,76.043304 
z"/>
<path fill="#B9A86A" opacity="1.000000" stroke="none" 
	d="
M1025.727539,993.635742 
	C1024.208984,991.475769 1022.797485,988.976196 1021.638550,986.294983 
	C1023.205627,988.507629 1024.520142,990.901794 1025.727539,993.635742 
z"/>
<path fill="#81825E" opacity="1.000000" stroke="none" 
	d="
M961.989868,81.987457 
	C960.567261,83.645721 959.144653,85.303978 957.141907,86.808716 
	C956.408508,86.533981 956.255188,86.412758 956.267334,85.998520 
	C958.032532,84.159927 959.632202,82.614334 961.421387,81.298462 
	C961.737183,81.681267 961.863525,81.834358 961.989868,81.987457 
z"/>
<path fill="#B9A86A" opacity="1.000000" stroke="none" 
	d="
M258.356323,897.690552 
	C259.675812,895.730591 261.318695,893.814758 263.283813,891.951111 
	C261.963989,893.913757 260.321869,895.824280 258.356323,897.690552 
z"/>
<path fill="#B9A86A" opacity="1.000000" stroke="none" 
	d="
M960.791382,845.612427 
	C959.442993,843.593811 958.198303,841.212341 957.010376,838.469482 
	C958.343018,840.488586 959.619019,842.869141 960.791382,845.612427 
z"/>
<path fill="#B9A86A" opacity="1.000000" stroke="none" 
	d="
M1007.759460,952.557983 
	C1006.383545,950.546814 1005.122314,948.191650 1003.929871,945.474670 
	C1005.290527,947.479919 1006.582336,949.846985 1007.759460,952.557983 
z"/>
<path fill="#81825E" opacity="1.000000" stroke="none" 
	d="
M956.037903,88.038666 
	C954.625916,89.353523 953.213989,90.668381 951.311157,91.916275 
	C950.820312,91.849304 950.535278,91.603645 950.687378,91.299484 
	C952.318115,89.703300 953.796814,88.411278 955.465698,87.349487 
	C955.783203,87.732697 955.910522,87.885681 956.037903,88.038666 
z"/>
<path fill="#B9A86A" opacity="1.000000" stroke="none" 
	d="
M611.384033,532.809204 
	C612.401733,531.154724 613.754211,529.539429 615.436890,527.963257 
	C614.417725,529.617676 613.068176,531.233093 611.384033,532.809204 
z"/>
<path fill="#B9A86A" opacity="1.000000" stroke="none" 
	d="
M971.901917,870.584106 
	C970.875549,869.256592 969.886780,867.554443 968.969849,865.493164 
	C970.007690,866.825806 970.973572,868.517700 971.901917,870.584106 
z"/>
<path fill="#B9A86A" opacity="1.000000" stroke="none" 
	d="
M1041.758789,1030.681885 
	C1040.721680,1029.303955 1039.794189,1027.585205 1038.953735,1025.511230 
	C1039.983276,1026.884277 1040.925903,1028.612671 1041.758789,1030.681885 
z"/>
<path fill="#81825E" opacity="1.000000" stroke="none" 
	d="
M950.061768,96.545486 
	C949.261719,96.938591 948.454773,96.948235 947.307434,96.583740 
	C947.846741,94.987511 948.726379,93.765419 949.728027,92.683197 
	C949.849915,92.823059 950.098389,93.098656 950.098389,93.098656 
	C950.083862,94.119781 950.069336,95.140907 950.061768,96.545486 
z"/>
<path fill="#B9A86A" opacity="1.000000" stroke="none" 
	d="
M962.919067,850.678101 
	C962.231628,849.951416 961.568542,848.888916 960.984253,847.472961 
	C961.689758,848.193787 962.316589,849.268005 962.919067,850.678101 
z"/>
<path fill="#B9A86A" opacity="1.000000" stroke="none" 
	d="
M1009.775879,957.666016 
	C1009.064148,956.935547 1008.459106,955.893066 1007.946777,954.519775 
	C1008.653870,955.244019 1009.268188,956.299011 1009.775879,957.666016 
z"/>
<path fill="#B9A86A" opacity="1.000000" stroke="none" 
	d="
M1013.127014,1036.174316 
	C1013.623657,1035.705444 1014.171936,1035.540527 1014.816772,1035.622925 
	C1014.335144,1036.072876 1013.756897,1036.275513 1013.127014,1036.174316 
z"/>
<path fill="#B9A86A" opacity="1.000000" stroke="none" 
	d="
M1026.715576,995.751343 
	C1026.312622,996.005127 1026.098511,995.871521 1025.995117,995.373535 
	C1026.378662,995.046509 1026.644897,995.164795 1026.715576,995.751343 
z"/>
<path fill="#B9A86A" opacity="1.000000" stroke="none" 
	d="
M979.736450,888.768311 
	C979.330383,888.977051 979.120667,888.813721 979.017822,888.301392 
	C979.402527,888.026428 979.671875,888.174255 979.736450,888.768311 
z"/>
<path fill="#81825E" opacity="1.000000" stroke="none" 
	d="
M956.791138,86.837616 
	C956.851074,87.300987 956.681519,87.581947 956.274963,87.950783 
	C955.910522,87.885681 955.783203,87.732697 955.621338,87.230202 
	C955.779114,86.702293 955.950806,86.505905 956.101929,86.291527 
	C956.255188,86.412758 956.408508,86.533981 956.791138,86.837616 
z"/>
<path fill="#81825E" opacity="1.000000" stroke="none" 
	d="
M950.960938,91.974213 
	C951.028809,92.442093 950.847656,92.712471 950.328247,93.004463 
	C950.098389,93.098656 949.849915,92.823059 949.867920,92.512589 
	C950.082458,91.981064 950.298950,91.781578 950.535278,91.603645 
	C950.535278,91.603645 950.820312,91.849304 950.960938,91.974213 
z"/>
<path fill="#B9A86A" opacity="1.000000" stroke="none" 
	d="
M1038.731567,1023.756470 
	C1038.337891,1023.982971 1038.125488,1023.835632 1038.013916,1023.338806 
	C1038.390503,1023.041443 1038.656494,1023.172607 1038.731567,1023.756470 
z"/>
<path fill="#81825E" opacity="1.000000" stroke="none" 
	d="
M968.811035,74.859634 
	C968.884766,75.337296 968.706848,75.616371 968.285156,75.969383 
	C967.905334,75.876099 967.769287,75.708885 967.591248,75.186340 
	C967.750427,74.672928 967.918396,74.485092 968.053162,74.267494 
	C968.221924,74.398674 968.390625,74.529854 968.811035,74.859634 
z"/>
<path fill="#81825E" opacity="1.000000" stroke="none" 
	d="
M962.735596,80.784592 
	C962.801575,81.255226 962.636230,81.539314 962.230347,81.905426 
	C961.863525,81.834358 961.737183,81.681267 961.573975,81.175812 
	C961.724121,80.639717 961.892456,80.440132 962.041931,80.224709 
	C962.195984,80.349152 962.350098,80.473602 962.735596,80.784592 
z"/>
<path fill="#B9A86A" opacity="1.000000" stroke="none" 
	d="
M991.710876,915.780151 
	C991.302368,916.011597 991.088013,915.859131 990.987427,915.345093 
	C991.377747,915.045471 991.645691,915.183105 991.710876,915.780151 
z"/>
<path fill="#FBBF4A" opacity="1.000000" stroke="none" 
	d="
M962.211304,79.932663 
	C961.892456,80.440132 961.724121,80.639717 961.384521,80.946106 
	C959.632202,82.614334 958.032532,84.159927 956.267334,85.998520 
	C955.950806,86.505905 955.779114,86.702293 955.431152,86.999969 
	C953.796814,88.411278 952.318115,89.703300 950.687378,91.299484 
	C950.298950,91.781578 950.082458,91.981064 949.745972,92.372719 
	C948.726379,93.765419 947.846741,94.987511 946.904785,96.543999 
	C931.282288,112.639610 915.721252,128.400085 900.163330,144.163605 
	C899.110046,145.230728 898.087708,146.328323 897.037903,147.398972 
	C876.977844,167.857742 856.877441,188.277252 836.864075,208.781601 
	C812.784241,233.452225 788.747375,258.165009 764.750671,282.916412 
	C748.640564,299.533203 732.708496,316.323364 716.506165,332.849152 
	C713.692932,335.718628 713.936401,338.228119 715.296814,341.344879 
	C723.354492,359.805878 731.371887,378.284424 739.423401,396.748138 
	C751.200928,423.756500 763.012573,450.750000 774.778503,477.763428 
	C786.743042,505.233185 798.674011,532.717651 810.612244,560.198853 
	C826.861816,597.604614 843.080200,635.023987 859.357361,672.417725 
	C873.376099,704.623291 887.486938,736.788818 901.504822,768.994812 
	C915.455383,801.046204 929.308350,833.140137 943.264282,865.189209 
	C956.356934,895.255737 969.539246,925.283142 982.658569,955.338013 
	C986.853760,964.948853 991.005371,974.579102 995.112732,984.227783 
	C996.839050,988.283081 996.222107,988.983704 990.917542,988.985840 
	C947.588867,989.003479 904.260132,988.998901 860.931458,989.001709 
	C860.265137,989.001709 859.598877,989.009521 858.463257,989.020325 
	C852.743469,988.681824 847.496155,988.113464 842.241760,988.038513 
	C831.604187,987.886780 831.714233,987.952515 827.841858,978.255188 
	C821.807007,963.142700 815.756592,948.033020 809.433960,933.039795 
	C800.606201,912.106079 791.618225,891.238464 782.520142,870.420593 
	C773.158081,848.998535 763.446228,827.728882 754.154297,806.276978 
	C749.272888,795.007568 745.118591,783.425110 740.349915,772.104553 
	C735.586243,760.795715 730.454895,749.642029 725.504578,738.411621 
	C720.091614,726.131592 714.681335,713.850220 709.306152,701.553589 
	C702.334717,685.605164 695.333801,669.669067 688.469238,653.674622 
	C683.236084,641.481323 678.324402,629.149292 673.030090,616.983215 
	C668.359192,606.249756 663.176819,595.738037 658.549072,584.986877 
	C653.445007,573.128967 648.768250,561.087891 643.806396,549.167725 
	C639.824280,539.601135 635.877197,530.010315 631.483032,520.632507 
	C630.548706,518.638611 627.746033,517.520203 625.428040,515.985474 
	C616.670959,496.571442 608.345642,477.146057 599.869446,457.786743 
	C597.793213,453.044708 596.630737,452.879822 593.139404,456.464539 
	C569.551147,480.683655 546.000671,504.939545 522.465393,529.210144 
	C518.295898,533.509888 514.323608,538.001221 510.142487,542.289185 
	C492.582825,560.297791 474.945587,578.230774 457.398804,596.251892 
	C435.208984,619.041565 413.073059,641.883728 390.925964,664.715027 
	C370.054962,686.230835 349.195801,707.758118 328.338531,729.287231 
	C308.061005,750.217896 287.796204,771.161011 267.518768,792.091858 
	C246.429779,813.860474 225.320404,835.609436 204.250793,857.396851 
	C200.782440,860.983398 197.180237,864.505493 194.216049,868.486328 
	C192.794006,870.395996 192.128357,873.305115 192.119385,875.765198 
	C191.989914,911.260986 192.034241,946.757263 192.027130,982.253479 
	C192.025787,988.963318 191.995255,988.994446 185.400040,988.996765 
	C153.236771,989.008118 121.073486,989.007874 88.437775,989.015381 
	C86.052505,988.659424 84.141876,988.003540 82.226440,987.989136 
	C71.228905,987.906799 60.221363,987.723633 49.235863,988.107849 
	C44.189522,988.284302 42.762466,986.821899 42.774609,981.708801 
	C42.950333,907.720276 42.920643,833.731323 42.919727,759.742432 
	C42.916874,528.777222 42.905178,297.811951 42.897724,66.846718 
	C42.897308,53.882515 42.900681,53.900002 56.039120,53.902397 
	C97.866150,53.910019 139.693192,53.896935 181.520218,53.907948 
	C189.645050,53.910084 189.969925,54.363319 190.114532,62.334618 
	C190.316635,73.474045 190.672745,84.610832 191.011063,95.747284 
	C191.035355,96.546883 191.452042,97.334564 191.864838,98.456001 
	C192.043411,289.668915 192.043411,480.553589 192.043411,671.438293 
	C192.611588,671.749512 193.179749,672.060791 193.747925,672.372009 
	C208.000916,657.977722 222.253922,643.583435 236.803909,628.995850 
	C243.256454,630.336853 247.035156,626.814331 250.726730,622.674316 
	C257.691437,614.863525 264.660828,607.042175 271.956543,599.544678 
	C283.782959,587.391235 295.925323,575.546021 307.841827,563.479370 
	C326.072418,545.018982 344.296631,526.551147 362.374298,507.941528 
	C369.667847,500.433350 376.380127,492.359222 383.699432,484.877716 
	C391.026855,477.387970 398.935211,470.468628 406.315765,463.028259 
	C419.564697,449.672028 432.680450,436.181396 445.716156,422.616608 
	C455.970428,411.946136 465.968231,401.029480 476.195038,390.332153 
	C479.058136,387.337311 482.475952,384.877197 485.387726,381.923706 
	C501.051300,366.035675 516.612000,350.046295 532.252869,334.135742 
	C554.203613,311.806549 576.248413,289.569397 598.130127,267.172882 
	C603.930054,261.236511 609.139893,254.726288 614.883667,248.731537 
	C619.015686,244.419067 623.685791,240.627625 627.938232,236.424103 
	C638.797058,225.690094 649.728882,215.021500 660.318176,204.025024 
	C679.471558,184.135208 698.271362,163.904587 717.460510,144.049820 
	C730.626831,130.426865 744.365601,117.357307 757.536743,103.738914 
	C766.427734,94.546082 774.514709,84.572929 783.452576,75.429092 
	C790.170349,68.556557 797.485535,62.222256 804.940125,56.145676 
	C806.979065,54.483624 810.478333,54.018215 813.309814,54.011410 
	C867.301025,53.881668 921.292542,53.904472 975.283997,53.888802 
	C978.742981,53.887798 982.202026,53.831203 986.053650,53.915871 
	C984.393005,56.500221 982.339722,58.969177 980.119568,61.715374 
	C977.670715,64.125359 975.388672,66.258110 972.908142,68.682877 
	C971.255798,70.546074 969.801941,72.117256 968.200684,73.977966 
	C967.918396,74.485092 967.750427,74.672928 967.388428,74.934540 
	C965.612000,76.572250 963.996338,78.106430 962.211304,79.932663 
z"/>
</svg>