<svg width="559" height="897" xmlns="http://www.w3.org/2000/svg" xml:space="preserve" enable-background="new 0 0 559 897" version="1.1">

 <g>
  <title>Layer 1</title>
  <path id="svg_1" d="m223,898c-74.33333,0 -148.16666,0 -222,0c0,-299 0,-598 0,-897c186.33333,0 372.66666,0 559,0c0,299 0,598 0,897c-112.16666,0 -224.33334,0 -337,0m290.19525,-703.89038c0,0 -0.28491,0.09848 0.53449,-0.84676c0.15112,-0.38861 0.30224,-0.77722 0.7771,-0.82284c2.20074,-1.71442 4.40148,-3.42882 6.60223,-5.14324c-0.21283,-0.419 -0.42566,-0.83801 -0.63849,-1.257c-3.362,0.28502 -6.724,0.57005 -11.06055,1.01244c-28.16262,0.01058 -56.3255,0.07435 -84.48767,-0.03138c-3.78479,-0.01419 -6.61944,1.13843 -9.1651,3.87867c-6.55246,7.05339 -13.18322,14.0379 -19.92248,20.9129c-8.11518,8.27861 -16.44034,16.35139 -24.55582,24.62971c-11.20032,11.42504 -22.29101,22.95754 -33.42605,34.44655c-9.65717,9.96417 -19.25568,19.9859 -28.97864,29.88541c-15.02542,15.29825 -30.20163,30.44879 -45.18863,45.78436c-13.16558,13.47183 -26.09867,27.17069 -39.24378,40.66272c-16.74107,17.18302 -33.56532,34.28525 -50.40409,51.37265c-14.01667,14.22354 -28.07674,28.40473 -42.18154,42.54083c-4.12652,4.13565 -8.47191,8.05289 -12.97616,11.12763c-0.01416,-16.74292 -0.03772,-33.48584 -0.04047,-50.22876c-0.00511,-31.16266 0.00337,-62.32532 0.00349,-93.48798c0.00016,-43.99435 -0.04912,-87.98883 0.0741,-131.98283c0.0115,-4.10292 -1.14403,-5.7301 -5.36369,-5.47839c-4.98218,0.29716 -10.00095,0.23448 -14.99005,0.01451c-1.58756,-0.07 -3.13099,-1.14107 -4.6688,-2.73415c0,-6.97334 0,-13.94667 0,-21.29964c-4.14895,0 -7.86451,0.00147 -11.58007,-0.00023c-20.83263,-0.00953 -41.66558,0.0403 -62.49773,-0.06567c-6.43562,-0.03273 -6.73191,0.05226 -6.7321,6.46202c-0.00452,153.32968 -0.01529,306.65936 0.00374,459.98905c0.00135,10.81915 0.22389,21.6383 0.3774,33.1889c7.84534,0.34503 15.69068,0.69012 23.81084,1.04724c0,6.55811 0.25297,12.55029 -0.08418,18.50903c-0.24676,4.36115 1.11859,5.71314 5.58713,5.67346c23.82835,-0.21197 47.65959,-0.09356 71.48983,-0.10882c1.43645,-0.00092 2.8728,-0.16937 4.56613,-0.276c0,-19.6615 -0.09583,-38.97418 0.12617,-58.28314c0.02655,-2.30908 1.2382,-5.10297 2.82579,-6.81324c9.08569,-9.78753 18.42932,-19.33642 27.72606,-28.92694c22.3806,-23.08801 44.76437,-46.17303 67.18734,-69.21984c8.93465,-9.18335 18.03685,-18.20392 26.95516,-27.40302c15.55029,-16.03973 31.04867,-32.13016 46.50683,-48.25873c8.99979,-9.39011 17.79389,-18.97855 26.86341,-28.2998c2.79077,-2.86829 6.18582,-5.14862 9.80847,-7.14148c1.88196,4.84741 3.61993,9.75674 5.67352,14.53033c5.61981,13.06327 11.42377,26.0473 17.05799,39.10443c5.55313,12.86936 10.88952,25.83277 16.50137,38.67615c5.84637,13.38013 12.04703,26.60614 17.83868,40.00934c6.33634,14.66388 12.33533,29.47302 18.56546,44.18329c8.57926,20.25683 17.19373,40.4992 25.8993,60.70202c1.7019,3.94959 3.88803,7.69049 6.11163,12.25763c2.56872,0.18616 5.15112,0.6333 7.70315,0.5c4.30072,-0.22448 7.1687,0.93506 8.55149,5.51752c1.49963,4.96979 3.69143,9.73431 5.64743,14.56165c1.26996,3.13397 3.13888,4.75207 7.06445,4.71869c26.31967,-0.22388 52.64215,-0.11378 78.96368,-0.12812c1.4369,-0.00079 2.87366,-0.14691 4.95386,-0.26062c-0.60345,-2.51886 -0.80664,-4.6723 -1.62677,-6.55731c-3.07727,-7.07355 -6.48785,-14.00269 -9.53613,-21.08813c-12.21265,-28.38739 -24.26773,-56.84272 -36.51917,-85.21326c-7.05767,-16.34351 -14.4234,-32.55371 -21.57284,-48.85791c-11.6853,-26.6482 -23.34204,-53.30905 -34.94522,-79.99307c-9.83219,-22.6113 -19.54853,-45.27298 -29.36191,-67.89249c-4.6239,-10.65793 -9.18594,-21.34866 -14.1203,-31.86295c-2.0003,-4.2623 -1.90442,-7.07501 1.74857,-10.66693c12.51284,-12.30377 24.57327,-25.06805 36.79022,-37.67224c8.6582,-8.93265 17.20367,-17.97626 25.95068,-26.8208c26.52759,-26.82336 53.13257,-53.57024 79.67719,-80.37683c0.60632,-0.61235 0.85424,-1.57962 1.49579,-2.8186c-8.39228,0 -16.26801,0.0337 -24.14325,-0.00948c-7.91651,-0.0434 -16.01887,2.3329 -23.21662,-2.0544c0.06574,-0.15907 0.13144,-0.31816 0.1528,-0.3947c0,0 -0.08776,0.10657 0.61948,-0.39842c0.16095,-0.24083 0.3219,-0.48167 0.44537,-0.66359c0,0 -0.08954,0.07636 0.49906,-0.19524c0.10345,-0.18966 0.20694,-0.37934 0.61511,-0.40373c0,0 0.24921,-0.24008 0.24921,-0.24008c0,0 -0.16111,-0.30638 0.36441,-0.5766c0.09616,-0.17189 0.19235,-0.34379 0.27105,-0.41662c0,0 -0.01922,0.05207 0.59455,-0.49309c0.15826,-0.22322 0.31656,-0.44646 0.43039,-0.56081c0,0 0.0133,-0.02972 0.59457,-0.48292c0.13532,-0.20505 0.27063,-0.41011 0.38623,-0.5165c0,0 -0.00848,-0.03157 0.78632,-0.6421c0.42096,-0.51726 0.84195,-1.0345 1.22778,-1.4458c0,0 0.00735,-0.01636 0.58621,-0.49234c0.15167,-0.19851 0.30335,-0.39699 0.41168,-0.48484c0,0 0.01026,-0.02229 0.60355,-0.47534c0.14899,-0.19932 0.29794,-0.39863 0.39758,-0.49296c0,0 0.01776,-0.03519 0.60913,-0.46261c0.14588,-0.19464 0.29175,-0.38928 0.4069,-0.47879c0,0 0.00408,-0.0652 0.59478,-0.50184c0.14197,-0.19953 0.28394,-0.39903 0.39917,-0.49288c0,0 0.0004,-0.06495 0.58557,-0.54393c0.14014,-0.20951 0.28028,-0.41902 0.37937,-0.52432c0,0 0.01175,-0.0361 0.6058,-0.50712c0.15058,-0.20298 0.30112,-0.40595 0.39511,-0.49427c0,0 0.02701,-0.0292 0.57315,-0.55085c0.14356,-0.20682 0.28708,-0.41364 0.4025,-0.51921c0,0 -0.00073,-0.0049 0.46594,-0.52713c0.12586,-0.19668 0.25165,-0.39336 0.55536,-0.53748z" fill="#000000"/>
  <path id="svg_2" d="m13.43207,685.90765c-0.11969,-10.81915 -0.34223,-21.6383 -0.34358,-32.45745c-0.01903,-153.32969 -0.00826,-306.65937 -0.00374,-459.98905c0.00019,-6.40976 0.29648,-6.49475 6.7321,-6.46202c20.83215,0.10597 41.6651,0.05614 62.49773,0.06567c3.71556,0.0017 7.43112,0.00023 11.58007,0.00023c0,7.35297 0,14.3263 0.08985,22.22928c0.06064,2.2612 0.0059,3.59273 0.00583,4.92427c-0.00566,99.2697 -0.00908,198.53942 0.01096,297.80913c0.0003,1.50037 0.29538,3.00073 0.56711,5.58923c8.80091,-8.74405 16.68585,-16.57809 24.57082,-24.41211c4.2451,-4.0173 8.59049,-7.93454 12.71701,-12.07019c14.1048,-14.1361 28.16487,-28.31729 42.18154,-42.54083c16.83877,-17.0874 33.66302,-34.18963 50.40409,-51.37265c13.14511,-13.49203 26.0782,-27.19089 39.24378,-40.66272c14.987,-15.33557 30.16321,-30.48611 45.18863,-45.78436c9.72296,-9.89951 19.32147,-19.92124 28.97864,-29.88541c11.13504,-11.48901 22.22573,-23.02151 33.42605,-34.44655c8.11548,-8.27832 16.44064,-16.3511 24.55582,-24.62971c6.73926,-6.875 13.37002,-13.85951 19.92248,-20.9129c2.54566,-2.74024 5.38031,-3.89286 9.1651,-3.87867c28.16217,0.10573 56.32505,0.04196 85.36487,-0.11224c2.79645,0.06039 4.7157,0.26442 7.76282,0.58833c-1.86029,2.21298 -2.86365,3.40653 -3.86695,4.60008c-0.15112,0.38863 -0.30224,0.77724 -0.81188,1.63877c-0.35846,0.47291 -0.35395,0.32129 -0.35395,0.32129c-0.12573,0.19667 -0.25152,0.39335 -0.56457,0.85342c-0.1872,0.2634 -0.25067,0.16249 -0.25067,0.16249c-0.1435,0.20682 -0.28702,0.41364 -0.66181,0.89311c-0.2312,0.27266 -0.2854,0.16356 -0.2854,0.16356c-0.15051,0.20296 -0.30105,0.40593 -0.70718,0.85344c-0.25556,0.24454 -0.30921,0.15837 -0.30921,0.15837c-0.14013,0.20952 -0.28027,0.41903 -0.67501,0.87291c-0.25464,0.24437 -0.30426,0.19391 -0.30426,0.19391c-0.14194,0.1995 -0.28391,0.399 -0.68378,0.82311c-0.25788,0.22458 -0.30618,0.17215 -0.30618,0.17215c-0.14585,0.19462 -0.29172,0.38926 -0.69291,0.80778c-0.25531,0.22389 -0.30453,0.13373 -0.30453,0.13373c-0.14893,0.19933 -0.29788,0.39864 -0.69885,0.83136c-0.25199,0.23338 -0.30823,0.13129 -0.30823,0.13129c-0.15167,0.1985 -0.30335,0.39698 -0.69705,0.84077c-0.24204,0.24529 -0.30905,0.1411 -0.30905,0.1411c-0.42096,0.51726 -0.84195,1.0345 -1.61753,1.85614c-0.35464,0.3044 -0.41199,0.23903 -0.41199,0.23903c-0.13531,0.20508 -0.27062,0.41014 -0.65518,0.84791c-0.24923,0.23275 -0.30084,0.14133 -0.30084,0.14133c-0.15832,0.22322 -0.31662,0.44646 -0.73984,0.92851c-0.26498,0.25884 -0.3121,0.1352 -0.3121,0.1352c-0.09619,0.17189 -0.19238,0.34379 -0.56222,0.75673c-0.27366,0.24102 -0.6446,0.41032 -0.6446,0.41032c-0.10351,0.1897 -0.207,0.37938 -0.57599,0.6902c-0.26556,0.12115 -0.19604,0.01515 -0.19604,0.01515c-0.16095,0.24085 -0.3219,0.48169 -0.79474,0.96047c-0.31192,0.23796 -0.26327,0.07794 -0.26327,0.07794c-0.06568,0.15907 -0.13138,0.31816 -0.62577,0.8594c-1.33847,1.10118 -2.34253,1.72857 -3.14419,2.55275c-15.20987,15.63619 -30.3851,31.30605 -45.58918,46.94786c-24.60678,25.31516 -49.19217,50.65143 -73.90387,75.8638c-2.40786,2.45667 -2.63171,4.37842 -1.26345,7.4137c5.81579,12.90183 11.389,25.91321 17.03003,38.89359c20.5068,47.18753 40.97695,94.39102 61.51443,141.56521c22.86371,52.51764 45.7908,105.00763 68.65543,157.5249c0.6156,1.41401 0.8305,3.00257 1.38324,5.07624c-2.72705,0.13843 -4.68366,0.32214 -6.64039,0.32409c-20.82196,0.02137 -41.64395,0.03754 -62.46585,-0.00018c-6.30441,-0.01141 -12.60846,-0.1944 -18.91268,-0.29883c-1.96277,-3.83716 -4.1489,-7.57806 -5.8508,-11.52765c-8.70557,-20.20282 -17.32004,-40.44519 -25.8993,-60.70202c-6.23013,-14.71027 -12.22912,-29.51941 -18.56546,-44.18329c-5.79165,-13.4032 -11.99231,-26.62921 -17.83868,-40.00934c-5.61185,-12.84338 -10.94824,-25.80679 -16.50137,-38.67615c-5.63422,-13.05713 -11.43818,-26.04116 -17.05799,-39.10443c-2.05359,-4.77359 -3.79156,-9.68292 -6.15475,-15.08099c-5.65775,-12.15253 -10.83426,-23.75443 -16.26938,-35.93591c-1.9866,1.89965 -3.33539,3.10607 -4.5911,4.40274c-17.95455,18.5404 -35.88107,37.108 -53.84483,55.63949c-32.91602,33.95621 -65.82951,67.91498 -98.78888,101.8291c-18.455,18.98957 -37.0732,37.82148 -55.3965,56.93659c-1.92814,2.01147 -3.28416,5.44305 -3.33216,8.24273c-0.29979,17.48536 -0.25995,34.97956 -0.07594,52.46808c0.04558,4.33313 -0.90563,6.16229 -5.76878,6.13391c-22.81657,-0.1333 -45.63536,0.14026 -68.45354,0.21039c-2.13284,0.00659 -4.26694,-0.39471 -6.40046,-0.60663z" fill="#FBBE4A"/>
  <path id="svg_3" d="m13.44898,686.27338c2.11661,-0.15381 4.25071,0.24749 6.38355,0.2409c22.81818,-0.07013 45.63697,-0.34369 68.45354,-0.21039c4.86315,0.02838 5.81436,-1.80078 5.76878,-6.13391c-0.18401,-17.48852 -0.22385,-34.98272 0.07594,-52.46808c0.048,-2.79968 1.40402,-6.23126 3.33216,-8.24273c18.3233,-19.11511 36.9415,-37.94702 55.3965,-56.93659c32.95937,-33.91412 65.87286,-67.87289 98.78888,-101.8291c17.96376,-18.53149 35.89028,-37.09909 53.84483,-55.63949c1.25571,-1.29667 2.6045,-2.50309 4.5911,-4.40274c5.43512,12.18148 10.61163,23.78338 16.01724,35.65759c-2.88928,2.82184 -6.28433,5.10217 -9.0751,7.97046c-9.06952,9.32125 -17.86362,18.90969 -26.86341,28.2998c-15.45816,16.12857 -30.95654,32.219 -46.50683,48.25873c-8.91831,9.1991 -18.02051,18.21967 -26.95516,27.40302c-22.42297,23.04681 -44.80674,46.13183 -67.18734,69.21984c-9.29674,9.59052 -18.64037,19.13941 -27.72606,28.92694c-1.58759,1.71027 -2.79924,4.50416 -2.82579,6.81324c-0.222,19.30896 -0.12617,38.62164 -0.12617,58.28314c-1.69333,0.10663 -3.12968,0.27508 -4.56613,0.276c-23.83024,0.01526 -47.66148,-0.10315 -71.48983,0.10882c-4.46854,0.03968 -5.83389,-1.31231 -5.58713,-5.67346c0.33715,-5.95874 0.08418,-11.95092 0.08418,-18.50903c-8.12016,-0.35712 -15.9655,-0.70221 -23.82775,-1.41296z" fill="#E6DEB3"/>
  <path id="svg_4" d="m434.35242,686.23602c6.17379,-0.26056 12.47784,-0.07757 18.78225,-0.06616c20.8219,0.03772 41.64389,0.02155 62.46585,0.00018c1.95673,-0.00195 3.91334,-0.18566 6.64039,-0.32409c-0.55274,-2.07367 -0.76764,-3.66223 -1.38324,-5.07624c-22.86463,-52.51727 -45.79172,-105.00726 -68.65543,-157.5249c-20.53748,-47.17419 -41.00763,-94.37768 -61.51443,-141.56521c-5.64103,-12.98038 -11.21424,-25.99176 -17.03003,-38.89359c-1.36826,-3.03528 -1.14441,-4.95703 1.26345,-7.4137c24.7117,-25.21237 49.29709,-50.54864 73.90387,-75.8638c15.20408,-15.64181 30.37931,-31.31167 45.58918,-46.94786c0.80166,-0.82418 1.80572,-1.45157 2.93417,-2.4026c7.83642,3.85498 15.93878,1.47868 23.85529,1.52208c7.87524,0.04318 15.75097,0.00948 24.14325,0.00948c-0.64155,1.23898 -0.88947,2.20625 -1.49579,2.8186c-26.54462,26.80659 -53.1496,53.55347 -79.67719,80.37683c-8.74701,8.84454 -17.29248,17.88815 -25.95068,26.8208c-12.21695,12.60419 -24.27738,25.36847 -36.79022,37.67224c-3.65299,3.59192 -3.74887,6.40463 -1.74857,10.66693c4.93436,10.51429 9.4964,21.20502 14.1203,31.86295c9.81338,22.61951 19.52972,45.28119 29.36191,67.89249c11.60318,26.68402 23.25992,53.34487 34.94522,79.99307c7.14944,16.3042 14.51517,32.5144 21.57284,48.85791c12.25144,28.37054 24.30652,56.82587 36.51917,85.21326c3.04828,7.08544 6.45886,14.01458 9.53613,21.08813c0.82013,1.88501 1.02332,4.03845 1.62677,6.55731c-2.0802,0.11371 -3.51696,0.25983 -4.95386,0.26062c-26.32153,0.01434 -52.64401,-0.09576 -78.96368,0.12812c-3.92557,0.03338 -5.79449,-1.58472 -7.06445,-4.71869c-1.956,-4.82734 -4.1478,-9.59186 -5.64743,-14.56165c-1.38279,-4.58246 -4.25077,-5.742 -8.55149,-5.51752c-2.55203,0.1333 -5.13443,-0.31384 -7.83355,-0.86499z" fill="#E3DCB1"/>
  <path id="svg_5" d="m119.00963,492.73355c-7.75538,8.3053 -15.64032,16.13934 -24.44123,24.88339c-0.27173,-2.5885 -0.56681,-4.08886 -0.56711,-5.58923c-0.02004,-99.26971 -0.01662,-198.53943 -0.01096,-297.80913c0.00007,-1.33154 0.05481,-2.66307 -0.01873,-4.43422c1.46086,0.17339 3.00429,1.24446 4.59185,1.31446c4.9891,0.21997 10.00787,0.28265 14.99005,-0.01451c4.21966,-0.25171 5.37519,1.37547 5.36369,5.47839c-0.12322,43.994 -0.07394,87.98848 -0.0741,131.98283c-0.00012,31.16266 -0.0086,62.32532 -0.00349,93.48798c0.00275,16.74292 0.02631,33.48584 0.17003,50.70004z" fill="#E7DFB4"/>
  <path id="svg_6" d="m514.34497,192.26851c0.84143,-1.36505 1.84479,-2.5586 3.70508,-4.77158c-3.04712,-0.32391 -4.96637,-0.52794 -7.27558,-0.667c2.97211,-0.2201 6.33411,-0.50513 9.69611,-0.79015c0.21283,0.41899 0.42566,0.838 0.63849,1.257c-2.20075,1.71442 -4.40149,3.42882 -6.7641,4.97173z" fill="#E3DCB1"/>
  <path id="svg_7" d="m509.24579,198.26111c0.01337,-0.05283 0.06299,-0.00237 0.02502,-0.00725c-0.03796,-0.00488 -0.03836,0.06007 -0.02502,0.00725z" fill="#E3DCB1"/>
  <path id="svg_8" d="m508.25385,199.2561c0.01535,-0.05256 0.06365,-0.00013 0.02618,-0.00639c-0.03745,-0.00626 -0.04153,0.05894 -0.02618,0.00639z" fill="#E3DCB1"/>
  <path id="svg_9" d="m507.24713,200.19754c0.02463,-0.05249 0.07385,0.03767 0.03348,0.0275c-0.04038,-0.01018 -0.05814,0.02501 -0.03348,-0.0275z" fill="#E3DCB1"/>
  <path id="svg_10" d="m506.24301,201.16303c0.02167,-0.05533 0.07791,0.04676 0.03324,0.0399c-0.04465,-0.00687 -0.05491,0.01542 -0.03324,-0.0399z" fill="#E3DCB1"/>
  <path id="svg_11" d="m505.24103,202.14255c0.01755,-0.05298 0.08456,0.05121 0.03717,0.04391c-0.0474,-0.00729 -0.05475,0.00907 -0.03717,-0.04391z" fill="#E3DCB1"/>
  <path id="svg_12" d="m503.21921,204.23408c0.00985,-0.04934 0.0672,0.01603 0.02444,0.0169c-0.04278,0.00088 -0.0343,0.03245 -0.02444,-0.0169z" fill="#E3DCB1"/>
  <path id="svg_13" d="m502.25079,205.22842c0.02225,-0.05444 0.07386,0.03698 0.03247,0.03084c-0.04141,-0.00613 -0.05471,0.02359 -0.03247,-0.03084z" fill="#E3DCB1"/>
  <path id="svg_14" d="m501.21234,206.28722c0.00876,-0.04953 0.05588,0.07411 0.01398,0.08786c-0.04193,0.01374 -0.02271,-0.03833 -0.01398,-0.08786z" fill="#E3DCB1"/>
  <path id="svg_15" d="m500.16663,207.4874c-0.15235,-0.08266 0.21859,-0.25196 0.22949,-0.35788c0.01092,-0.10593 0.17203,0.20045 0.17203,0.20045c0,0 -0.24921,0.24008 -0.40152,0.15743z" fill="#E3DCB1"/>
  <path id="svg_16" d="m499.22351,208.13956c0.01874,-0.02947 -0.05078,0.07653 -0.07953,0.09118c-0.02875,0.01464 0.06079,-0.06172 0.07953,-0.09118z" fill="#E3DCB1"/>
  <path id="svg_17" d="m510.2179,197.19357c0.02053,-0.05211 0.07418,0.03406 0.03271,0.02503c-0.04147,-0.00902 -0.05322,0.02708 -0.03271,-0.02503z" fill="#E3DCB1"/>
  <path id="svg_18" d="m498.16208,209.18976c0.02216,-0.04126 -0.02649,0.11876 -0.06821,0.1333c-0.04171,0.01454 0.04605,-0.09203 0.06821,-0.1333z" fill="#E3DCB1"/>
  <path id="svg_19" d="m511.22656,196.18698c0.02826,-0.05733 0.08246,0.05177 0.04059,0.03995c-0.04184,-0.01184 -0.06885,0.01736 -0.04059,-0.03995z" fill="#E3DCB1"/>
  <path id="svg_20" d="m512.18799,195.1236c0.01404,-0.05062 0.07751,0.05029 0.03137,0.048c-0.04614,-0.00227 -0.04541,0.00263 -0.03137,-0.048z" fill="#E3DCB1"/>
  <path id="svg_21" d="m513.10626,194.08334c-0.08899,-0.02627 -0.0935,0.12535 -0.14471,0.12506c-0.05121,-0.0003 0.2337,-0.09878 0.14471,-0.12506z" fill="#E3DCB1"/>
 </g>
</svg>